<svg width="246" height="36" viewBox="0 0 246 36" fill="none" xmlns="http://www.w3.org/2000/svg">
<path d="M21.3163 31.9435H20.7534C20.7534 31.9375 20.7506 31.9315 20.7495 31.9259L20.7341 31.857C20.7242 31.8117 20.7135 31.7668 20.7025 31.7223C20.6978 31.7013 20.6926 31.6804 20.6875 31.6594C20.6729 31.6007 20.6575 31.5419 20.6417 31.4832L20.637 31.4663C20.6196 31.4027 20.6014 31.3393 20.5825 31.2762L20.5635 31.2152C20.5505 31.1718 20.5367 31.1288 20.5241 31.0857C20.5166 31.0621 20.5087 31.0389 20.5012 31.0157C20.4874 30.9742 20.4731 30.9327 20.4585 30.8915C20.451 30.8698 20.4431 30.8477 20.4356 30.8264C20.4172 30.7747 20.3983 30.7235 20.3788 30.6726C20.3745 30.6617 20.3709 30.6512 20.3666 30.6404C20.3437 30.5805 20.3196 30.521 20.2951 30.4615C20.2864 30.4398 20.2773 30.4184 20.2683 30.3971C20.2517 30.3597 20.2351 30.3185 20.2181 30.2796L20.1862 30.2074C20.1696 30.1699 20.1526 30.1325 20.1352 30.0951C20.1246 30.0719 20.1135 30.0483 20.1025 30.0251C20.0823 29.9821 20.063 29.9394 20.0405 29.8971C20.0322 29.881 20.0247 29.8646 20.0164 29.8481C19.9884 29.7923 19.9596 29.7358 19.9304 29.6819L19.8909 29.6119L19.8352 29.5105L19.7918 29.4357C19.7736 29.4042 19.7555 29.3728 19.7369 29.3414C19.7223 29.3159 19.7073 29.2905 19.6923 29.2665C19.6718 29.2325 19.6529 29.1992 19.6303 29.1655L19.5735 29.0742C19.5467 29.0322 19.5198 28.99 19.4922 28.9484C19.4748 28.9222 19.4575 28.8964 19.4397 28.8706C19.4219 28.8447 19.4026 28.8152 19.3836 28.7879C19.3647 28.7605 19.3442 28.7332 19.3268 28.7063C19.3094 28.6793 19.2905 28.655 19.2719 28.6314C19.2534 28.6079 19.2324 28.5764 19.2123 28.5491L19.1567 28.4742C19.1172 28.4245 19.0809 28.3747 19.0422 28.3246L18.9881 28.2561C18.9652 28.2272 18.9415 28.1988 18.9182 28.1704L18.8661 28.1075C18.842 28.0787 18.8176 28.0502 18.7931 28.0214L18.7418 27.9623L18.6652 27.8755L18.6198 27.8253C18.5254 27.7216 18.4287 27.6195 18.3297 27.5199L18.2862 27.4761L18.1954 27.3874L18.1508 27.3448C18.1192 27.3145 18.0877 27.2845 18.0557 27.255L18.0229 27.225C17.9112 27.1221 17.7963 27.0218 17.6795 26.9256L17.6475 26.8991C17.6115 26.8691 17.5752 26.8395 17.5386 26.8104L17.5023 26.7812C17.4628 26.7512 17.4269 26.7217 17.3886 26.6921L17.3692 26.6775C17.2401 26.5787 17.1079 26.4825 16.9745 26.3901L16.9559 26.377C16.9137 26.3482 16.8714 26.3197 16.8288 26.2917L16.8008 26.2733C16.7574 26.2445 16.7135 26.2164 16.6697 26.1884L16.6622 26.1839C16.517 26.0918 16.3689 26.0036 16.2181 25.9193L16.2122 25.9155C16.1645 25.889 16.1167 25.8631 16.0689 25.8373L16.048 25.8261C15.7938 25.6901 15.5327 25.5654 15.2648 25.4519L15.2482 25.4447C15.1776 25.4148 15.1065 25.386 15.0347 25.3575H16.4475C16.6776 25.3575 16.8643 25.1064 16.8643 24.7962C16.8643 24.4859 16.6776 24.2348 16.4475 24.2348H16.0267C16.0527 24.1719 16.0816 24.1008 16.1127 24.0207C16.5106 23.7857 17.2109 23.285 17.9057 22.3651L17.9112 22.358C17.9639 22.2891 18.0156 22.2179 18.0664 22.1443L18.0766 22.1297C18.1271 22.0575 18.1777 21.983 18.2274 21.9051L18.2408 21.8846C18.2645 21.8471 18.2882 21.8097 18.3119 21.7723C18.3119 21.7723 18.3119 21.7693 18.3147 21.7674C18.3391 21.73 18.3632 21.6888 18.3873 21.6488L18.4027 21.623C18.4232 21.5885 18.4441 21.5534 18.4643 21.5178C18.4682 21.5114 18.4722 21.5051 18.4757 21.4983C18.499 21.4579 18.5223 21.4168 18.5452 21.3752L18.561 21.3464C18.5799 21.312 18.5985 21.2772 18.617 21.242C18.6226 21.2323 18.6281 21.2222 18.6332 21.212C18.6553 21.1698 18.6774 21.1271 18.6995 21.0837L18.7149 21.0534C18.7323 21.0182 18.7501 20.9823 18.7674 20.9463L18.7864 20.9089C18.8077 20.8648 18.8286 20.8198 18.8495 20.7746L18.8626 20.7457C18.8799 20.7083 18.8969 20.6709 18.9139 20.6335L18.934 20.5886C18.9537 20.5433 18.9735 20.4976 18.9924 20.4516C18.996 20.4434 18.9995 20.4347 19.0027 20.4265C19.0205 20.3842 19.0378 20.3412 19.0552 20.2978L19.0749 20.2484C19.0911 20.2072 19.1073 20.1657 19.1231 20.1241L19.1349 20.0927C19.1535 20.0433 19.1716 19.9928 19.1898 19.943L19.2088 19.8898C19.223 19.8502 19.2368 19.8098 19.2506 19.7693C19.2557 19.7544 19.2609 19.7394 19.2656 19.7244C19.283 19.6728 19.3003 19.62 19.3173 19.5672C19.3228 19.5489 19.3288 19.5298 19.3343 19.5126L19.3738 19.3895C19.3789 19.3715 19.3844 19.3521 19.3896 19.336C19.4057 19.2817 19.4219 19.2263 19.4373 19.1705C19.4424 19.153 19.4472 19.135 19.4519 19.117C19.4638 19.074 19.4756 19.031 19.4871 18.9872C19.4922 18.9673 19.4973 18.9475 19.5028 18.9277C19.5175 18.87 19.5321 18.812 19.5463 18.7533L19.5581 18.7042C19.5692 18.6575 19.5802 18.6103 19.5909 18.5628L19.6051 18.4992C19.6185 18.4382 19.6319 18.3772 19.6446 18.315C19.6473 18.303 19.6497 18.2907 19.6521 18.2776C19.6631 18.2241 19.6738 18.1698 19.684 18.1156C19.6884 18.0935 19.6923 18.0714 19.6967 18.0493C19.7069 17.9936 19.7168 17.937 19.7267 17.8813C19.7286 17.8693 19.731 17.8577 19.733 17.8461C19.744 17.7802 19.7548 17.7139 19.7654 17.647C19.7689 17.6245 19.7725 17.6021 19.7756 17.5793C19.7839 17.525 19.7918 17.4704 19.7997 17.415L19.8068 17.3641C19.8163 17.2952 19.8254 17.226 19.834 17.1556C19.8368 17.1335 19.8392 17.1115 19.8419 17.089C19.8488 17.0331 19.8551 16.977 19.8609 16.9206C19.8633 16.9004 19.8656 16.8805 19.8676 16.8603C19.8752 16.788 19.8823 16.715 19.8889 16.6414C19.8889 16.6208 19.8925 16.6002 19.894 16.5793C19.8992 16.5202 19.9043 16.4606 19.9087 16.4008C19.9087 16.3787 19.9122 16.3566 19.9138 16.3345C19.9193 16.2582 19.9244 16.1813 19.9292 16.104C19.9292 16.0864 19.9292 16.0666 19.9319 16.0509C19.9355 15.9865 19.939 15.9217 19.9418 15.8566C19.9418 15.833 19.9418 15.8095 19.945 15.7859C19.9481 15.7054 19.9513 15.6246 19.9537 15.5426C19.9537 15.5314 19.9537 15.5198 19.9537 15.5082C19.9558 15.4353 19.9573 15.3617 19.9584 15.2874C19.9584 15.2631 19.9584 15.2387 19.9584 15.2144C19.9584 15.1346 19.9584 15.0542 19.9584 14.9734V14.9547C19.9584 14.8686 19.9584 14.7814 19.9584 14.6927V14.6179C19.9584 14.543 19.9552 14.4644 19.9533 14.3866V14.3443C19.9505 14.2545 19.9469 14.1635 19.9434 14.0722C19.9434 14.0486 19.941 14.0247 19.9402 14.0011C19.9368 13.9243 19.9329 13.8469 19.9284 13.7691C19.9284 13.75 19.9284 13.7317 19.9252 13.7111C19.9197 13.6175 19.9136 13.5232 19.9071 13.4282L19.9023 13.3619C19.8964 13.2826 19.8905 13.2029 19.8838 13.1224C19.8838 13.0992 19.8802 13.076 19.8783 13.0528C19.87 12.9555 19.8609 12.8571 19.8514 12.7583C19.8514 12.7395 19.8475 12.7208 19.8459 12.7017C19.8376 12.6175 19.8285 12.5326 19.8194 12.4469C19.8167 12.4211 19.8139 12.3956 19.8108 12.3698C19.7997 12.268 19.7879 12.1658 19.7752 12.0622C19.7752 12.0494 19.7717 12.0367 19.7701 12.0247C19.7588 11.9319 19.7468 11.8386 19.7342 11.7448C19.7302 11.7171 19.7267 11.6894 19.7227 11.6617C19.708 11.5554 19.6929 11.4483 19.6773 11.3402C18.0983 0.684033 6.90876 2.41341 6.90876 2.41341L7.26719 4.70304L0.5 11.4806L0.795667 14.0977L3.35917 15.5947C3.47345 15.3193 3.62017 15.057 3.79655 14.8129C5.45055 13.0041 8.65947 11.5843 9.57805 11.2897C9.76201 11.231 9.86662 11.2014 9.86662 11.2014C5.47266 16.5928 5.97241 22.7693 6.16821 24.2415C5.96452 24.279 5.80701 24.5121 5.80701 24.7966C5.80701 25.1064 5.99373 25.3579 6.22387 25.3579H7.63668C5.28699 26.2904 3.42185 28.0663 2.44848 30.2979C2.44734 30.301 2.44602 30.304 2.44454 30.3069C2.37269 30.4726 2.30585 30.6406 2.24401 30.811C2.24411 30.8128 2.24411 30.8145 2.24401 30.8163C2.22743 30.8627 2.21124 30.9091 2.19545 30.9559C2.18953 30.9727 2.18361 30.9895 2.17808 31.0068C2.16387 31.0487 2.15071 31.091 2.13861 31.1336C2.1315 31.1553 2.12479 31.1774 2.11808 31.1991C2.10545 31.2392 2.09321 31.2796 2.08137 31.32L2.06005 31.3948C2.049 31.4323 2.03795 31.4723 2.02768 31.5112C2.02018 31.5389 2.01308 31.5662 2.00597 31.5939C1.9965 31.6314 1.98663 31.6688 1.97755 31.7062C1.96847 31.7436 1.95978 31.7811 1.9511 31.8207C1.94242 31.8604 1.93136 31.9068 1.92189 31.9502H1.35858C1.25026 31.948 1.14255 31.9662 1.04178 32.004C0.941006 32.0417 0.8492 32.0981 0.771747 32.17C0.694294 32.2418 0.63275 32.3276 0.590736 32.4223C0.548723 32.5169 0.527081 32.6186 0.527081 32.7214C0.527081 32.8241 0.548723 32.9258 0.590736 33.0204C0.63275 33.1151 0.694294 33.2009 0.771747 33.2727C0.8492 33.3446 0.941006 33.401 1.04178 33.4387C1.14255 33.4765 1.25026 33.4947 1.35858 33.4925H21.3234C21.4318 33.4947 21.5395 33.4765 21.6402 33.4387C21.741 33.401 21.8328 33.3446 21.9103 33.2727C21.9877 33.2009 22.0493 33.1151 22.0913 33.0204C22.1333 32.9258 22.1549 32.8241 22.1549 32.7214C22.1549 32.6186 22.1333 32.5169 22.0913 32.4223C22.0493 32.3276 21.9877 32.2418 21.9103 32.17C21.8328 32.0981 21.741 32.0417 21.6402 32.004C21.5395 31.9662 21.4318 31.948 21.3234 31.9502L21.3163 31.9435Z" fill="#595653"/>
<path d="M44.7035 31.9435H44.1406C44.1406 31.9375 44.1379 31.9315 44.1367 31.9259L44.1213 31.857C44.1114 31.8117 44.1008 31.7668 44.0897 31.7223C44.085 31.7013 44.0798 31.6804 44.0747 31.6594C44.0601 31.6007 44.0447 31.5419 44.0289 31.4832L44.0242 31.4663C44.0068 31.4027 43.9886 31.3393 43.9697 31.2762L43.9507 31.2152C43.9377 31.1718 43.9239 31.1288 43.9113 31.0857C43.9038 31.0621 43.8959 31.0389 43.8884 31.0157C43.8746 30.9742 43.8603 30.9327 43.8457 30.8915C43.8382 30.8698 43.8303 30.8477 43.8228 30.8264C43.8044 30.7747 43.7855 30.7235 43.766 30.6726C43.7617 30.6617 43.7581 30.6512 43.7538 30.6404C43.7309 30.5805 43.7068 30.521 43.6823 30.4615C43.6736 30.4398 43.6646 30.4184 43.6555 30.3971C43.6389 30.3597 43.6223 30.3185 43.6053 30.2796L43.5734 30.2074C43.5568 30.1699 43.5398 30.1325 43.5224 30.0951C43.5118 30.0719 43.5007 30.0483 43.4897 30.0251C43.4695 29.9821 43.4502 29.9394 43.4277 29.8971C43.4194 29.881 43.4119 29.8646 43.4036 29.8481C43.3756 29.7923 43.3468 29.7358 43.3176 29.6819L43.2781 29.6119L43.2224 29.5105L43.179 29.4357C43.1608 29.4042 43.1427 29.3728 43.1241 29.3414C43.1095 29.3159 43.0945 29.2905 43.0795 29.2665C43.059 29.2325 43.0401 29.1992 43.0176 29.1655L42.9607 29.0742C42.9339 29.0322 42.907 28.99 42.8794 28.9484C42.862 28.9222 42.8447 28.8964 42.8269 28.8706C42.8091 28.8447 42.7898 28.8152 42.7708 28.7879C42.7519 28.7605 42.7314 28.7332 42.714 28.7063C42.6966 28.6793 42.6777 28.655 42.6591 28.6314C42.6406 28.6079 42.6197 28.5764 42.5995 28.5491L42.5439 28.4742C42.5044 28.4245 42.4681 28.3747 42.4294 28.3246L42.3753 28.2561C42.3524 28.2272 42.3287 28.1988 42.3054 28.1704L42.2533 28.1075C42.2292 28.0787 42.2048 28.0502 42.1803 28.0214L42.129 27.9623L42.0524 27.8755L42.007 27.8253C41.9127 27.7216 41.8159 27.6195 41.7169 27.5199L41.6734 27.4761L41.5826 27.3874L41.538 27.3448C41.5065 27.3145 41.4749 27.2845 41.4429 27.255L41.4101 27.225C41.2984 27.1221 41.1836 27.0218 41.0667 26.9256L41.0347 26.8991C40.9987 26.8691 40.9624 26.8395 40.9258 26.8104L40.8895 26.7812C40.85 26.7512 40.8141 26.7217 40.7758 26.6921L40.7564 26.6775C40.6273 26.5787 40.4951 26.4825 40.3617 26.3901L40.3431 26.377C40.3009 26.3482 40.2587 26.3197 40.216 26.2917L40.188 26.2733C40.1446 26.2445 40.1008 26.2164 40.0569 26.1884L40.0494 26.1839C39.9042 26.0918 39.7561 26.0036 39.6053 25.9193L39.5994 25.9155C39.5517 25.889 39.5039 25.8631 39.4561 25.8373L39.4352 25.8261C39.181 25.6901 38.9199 25.5654 38.652 25.4519L38.6354 25.4447C38.5648 25.4148 38.4937 25.386 38.4219 25.3575H39.8347C40.0648 25.3575 40.2515 25.1064 40.2515 24.7962C40.2515 24.4859 40.0648 24.2348 39.8347 24.2348H39.4139C39.4399 24.1719 39.4688 24.1008 39.4999 24.0207C39.8979 23.7857 40.5981 23.285 41.2929 22.3651L41.2984 22.358C41.3511 22.2891 41.4028 22.2179 41.4536 22.1443L41.4638 22.1297C41.5144 22.0575 41.5649 21.983 41.6146 21.9051L41.628 21.8846C41.6517 21.8471 41.6754 21.8097 41.6991 21.7723C41.6991 21.7723 41.6991 21.7693 41.7019 21.7674C41.7263 21.73 41.7504 21.6888 41.7745 21.6488L41.7899 21.623C41.8104 21.5885 41.8313 21.5534 41.8515 21.5178C41.8554 21.5114 41.8594 21.5051 41.8629 21.4983C41.8862 21.4579 41.9095 21.4168 41.9324 21.3752L41.9482 21.3464C41.9671 21.312 41.9857 21.2772 42.0042 21.242C42.0098 21.2323 42.0153 21.2222 42.0204 21.212C42.0425 21.1698 42.0646 21.1271 42.0867 21.0837L42.1021 21.0534C42.1195 21.0182 42.1373 20.9823 42.1546 20.9463L42.1736 20.9089C42.1949 20.8648 42.2158 20.8198 42.2367 20.7746L42.2498 20.7457C42.2671 20.7083 42.2841 20.6709 42.3011 20.6335L42.3212 20.5886C42.341 20.5433 42.3607 20.4976 42.3796 20.4516C42.3832 20.4434 42.3867 20.4347 42.3899 20.4265C42.4077 20.3842 42.425 20.3412 42.4424 20.2978L42.4621 20.2484C42.4783 20.2072 42.4945 20.1657 42.5103 20.1241L42.5221 20.0927C42.5407 20.0433 42.5589 19.9928 42.577 19.943L42.596 19.8898C42.6102 19.8502 42.624 19.8098 42.6378 19.7693C42.6429 19.7544 42.6481 19.7394 42.6528 19.7244C42.6702 19.6728 42.6875 19.62 42.7045 19.5672C42.71 19.5489 42.716 19.5298 42.7215 19.5126L42.761 19.3895C42.7661 19.3715 42.7716 19.3521 42.7768 19.336C42.7929 19.2817 42.8091 19.2263 42.8245 19.1705C42.8297 19.153 42.8344 19.135 42.8391 19.117C42.851 19.074 42.8628 19.031 42.8743 18.9872C42.8794 18.9673 42.8845 18.9475 42.8901 18.9277C42.9047 18.87 42.9193 18.812 42.9335 18.7533L42.9453 18.7042C42.9564 18.6575 42.9674 18.6103 42.9781 18.5628L42.9923 18.4992C43.0057 18.4382 43.0191 18.3772 43.0318 18.315C43.0345 18.303 43.0369 18.2907 43.0393 18.2776C43.0503 18.2241 43.061 18.1698 43.0712 18.1156C43.0756 18.0935 43.0795 18.0714 43.0839 18.0493C43.0941 17.9936 43.104 17.937 43.1139 17.8813C43.1159 17.8693 43.1182 17.8577 43.1202 17.8461C43.1312 17.7802 43.142 17.7139 43.1526 17.647C43.1561 17.6245 43.1597 17.6021 43.1628 17.5793C43.1711 17.525 43.179 17.4704 43.1869 17.415L43.194 17.3641C43.2035 17.2952 43.2126 17.226 43.2212 17.1556C43.224 17.1335 43.2264 17.1115 43.2291 17.089C43.236 17.0331 43.2423 16.977 43.2481 16.9206C43.2505 16.9004 43.2528 16.8805 43.2548 16.8603C43.2624 16.788 43.2695 16.715 43.2761 16.6414C43.2761 16.6208 43.2797 16.6002 43.2813 16.5793C43.2864 16.5202 43.2915 16.4606 43.2959 16.4008C43.2959 16.3787 43.2994 16.3566 43.301 16.3345C43.3065 16.2582 43.3116 16.1813 43.3164 16.104C43.3164 16.0864 43.3164 16.0666 43.3191 16.0509C43.3227 15.9865 43.3263 15.9217 43.329 15.8566C43.329 15.833 43.329 15.8095 43.3322 15.7859C43.3353 15.7054 43.3385 15.6246 43.3409 15.5426C43.3409 15.5314 43.3409 15.5198 43.3409 15.5082C43.343 15.4353 43.3445 15.3617 43.3456 15.2874C43.3456 15.2631 43.3456 15.2387 43.3456 15.2144C43.3456 15.1346 43.3456 15.0542 43.3456 14.9734V14.9547C43.3456 14.8686 43.3456 14.7814 43.3456 14.6927V14.6179C43.3456 14.543 43.3424 14.4644 43.3405 14.3866V14.3443C43.3377 14.2545 43.3341 14.1635 43.3306 14.0722C43.3306 14.0486 43.3282 14.0247 43.3274 14.0011C43.324 13.9243 43.3201 13.8469 43.3156 13.7691C43.3156 13.75 43.3156 13.7317 43.3124 13.7111C43.3069 13.6175 43.3009 13.5232 43.2943 13.4282L43.2895 13.3619C43.2836 13.2826 43.2777 13.2029 43.271 13.1224C43.271 13.0992 43.2674 13.076 43.2655 13.0528C43.2572 12.9555 43.2481 12.8571 43.2386 12.7583C43.2386 12.7395 43.2347 12.7208 43.2331 12.7017C43.2248 12.6175 43.2157 12.5326 43.2066 12.4469C43.2039 12.4211 43.2011 12.3956 43.198 12.3698C43.1869 12.268 43.1751 12.1658 43.1624 12.0622C43.1624 12.0494 43.1589 12.0367 43.1573 12.0247C43.146 11.9319 43.134 11.8386 43.1214 11.7448C43.1174 11.7171 43.1139 11.6894 43.1099 11.6617C43.0952 11.5554 43.0801 11.4483 43.0645 11.3402C41.4855 0.684033 30.296 2.41341 30.296 2.41341L30.6544 4.70304L23.8872 11.4806L24.1829 14.0977L26.7464 15.5947C26.8607 15.3193 27.0074 15.057 27.1838 14.8129C28.8378 13.0041 32.0467 11.5843 32.9653 11.2897C33.1492 11.231 33.2538 11.2014 33.2538 11.2014C28.8599 16.5928 29.3596 22.7693 29.5554 24.2415C29.3517 24.279 29.1942 24.5121 29.1942 24.7966C29.1942 25.1064 29.3809 25.3579 29.6111 25.3579H31.0239C28.6742 26.2904 26.8091 28.0663 25.8357 30.2979C25.8345 30.301 25.8332 30.304 25.8317 30.3069C25.7599 30.4726 25.6931 30.6406 25.6312 30.811C25.6313 30.8128 25.6313 30.8145 25.6312 30.8163C25.6146 30.8627 25.5984 30.9091 25.5827 30.9559C25.5767 30.9727 25.5708 30.9895 25.5653 31.0068C25.5511 31.0487 25.5379 31.091 25.5258 31.1336C25.5187 31.1553 25.512 31.1774 25.5053 31.1991C25.4927 31.2392 25.4804 31.2796 25.4686 31.32L25.4473 31.3948C25.4362 31.4323 25.4252 31.4723 25.4149 31.5112C25.4074 31.5389 25.4003 31.5662 25.3932 31.5939C25.3837 31.6314 25.3738 31.6688 25.3648 31.7062C25.3557 31.7436 25.347 31.7811 25.3383 31.8207C25.3296 31.8604 25.3186 31.9068 25.3091 31.9502H24.7458C24.6375 31.948 24.5298 31.9662 24.429 32.004C24.3282 32.0417 24.2364 32.0981 24.159 32.17C24.0815 32.2418 24.02 32.3276 23.9779 32.4223C23.9359 32.5169 23.9143 32.6186 23.9143 32.7214C23.9143 32.8241 23.9359 32.9258 23.9779 33.0204C24.02 33.1151 24.0815 33.2009 24.159 33.2727C24.2364 33.3446 24.3282 33.401 24.429 33.4387C24.5298 33.4765 24.6375 33.4947 24.7458 33.4925H44.7106C44.819 33.4947 44.9267 33.4765 45.0274 33.4387C45.1282 33.401 45.22 33.3446 45.2975 33.2727C45.3749 33.2009 45.4365 33.1151 45.4785 33.0204C45.5205 32.9258 45.5421 32.8241 45.5421 32.7214C45.5421 32.6186 45.5205 32.5169 45.4785 32.4223C45.4365 32.3276 45.3749 32.2418 45.2975 32.17C45.22 32.0981 45.1282 32.0417 45.0274 32.004C44.9267 31.9662 44.819 31.948 44.7106 31.9502L44.7035 31.9435Z" fill="#595653"/>
<path d="M68.0912 31.9435H67.5283C67.5283 31.9375 67.5255 31.9315 67.5244 31.9259L67.509 31.857C67.4991 31.8117 67.4884 31.7668 67.4774 31.7223C67.4726 31.7013 67.4675 31.6804 67.4624 31.6594C67.4478 31.6007 67.4324 31.5419 67.4166 31.4832L67.4118 31.4663C67.3945 31.4027 67.3763 31.3393 67.3574 31.2762L67.3384 31.2152C67.3254 31.1718 67.3116 31.1288 67.299 31.0857C67.2914 31.0621 67.2836 31.0389 67.2761 31.0157C67.2622 30.9742 67.248 30.9327 67.2334 30.8915C67.2259 30.8698 67.218 30.8477 67.2105 30.8264C67.1921 30.7747 67.1732 30.7235 67.1537 30.6726C67.1493 30.6617 67.1458 30.6512 67.1414 30.6404C67.1186 30.5805 67.0945 30.521 67.07 30.4615C67.0613 30.4398 67.0522 30.4184 67.0432 30.3971C67.0266 30.3597 67.01 30.3185 66.993 30.2796L66.961 30.2074C66.9445 30.1699 66.9275 30.1325 66.9101 30.0951C66.8995 30.0719 66.8884 30.0483 66.8774 30.0251C66.8572 29.9821 66.8379 29.9394 66.8154 29.8971C66.8071 29.881 66.7996 29.8646 66.7913 29.8481C66.7633 29.7923 66.7345 29.7358 66.7052 29.6819L66.6658 29.6119L66.6101 29.5105L66.5667 29.4357C66.5485 29.4042 66.5304 29.3728 66.5118 29.3414C66.4972 29.3159 66.4822 29.2905 66.4672 29.2665C66.4467 29.2325 66.4277 29.1992 66.4052 29.1655L66.3484 29.0742C66.3216 29.0322 66.2947 28.99 66.2671 28.9484C66.2497 28.9222 66.2323 28.8964 66.2146 28.8706C66.1968 28.8447 66.1775 28.8152 66.1585 28.7879C66.1396 28.7605 66.119 28.7332 66.1017 28.7063C66.0843 28.6793 66.0654 28.655 66.0468 28.6314C66.0283 28.6079 66.0073 28.5764 65.9872 28.5491L65.9315 28.4742C65.8921 28.4245 65.8557 28.3747 65.8171 28.3246L65.763 28.2561C65.7401 28.2272 65.7164 28.1988 65.6931 28.1704L65.641 28.1075C65.6169 28.0787 65.5924 28.0502 65.568 28.0214L65.5167 27.9623L65.4401 27.8755L65.3947 27.8253C65.3003 27.7216 65.2036 27.6195 65.1045 27.5199L65.0611 27.4761L64.9703 27.3874L64.9257 27.3448C64.8941 27.3145 64.8626 27.2845 64.8306 27.255L64.7978 27.225C64.6861 27.1221 64.5712 27.0218 64.4544 26.9256L64.4224 26.8991C64.3864 26.8691 64.35 26.8395 64.3135 26.8104L64.2771 26.7812C64.2377 26.7512 64.2017 26.7217 64.1635 26.6921L64.1441 26.6775C64.015 26.5787 63.8828 26.4825 63.7494 26.3901L63.7308 26.377C63.6886 26.3482 63.6463 26.3197 63.6037 26.2917L63.5757 26.2733C63.5323 26.2445 63.4884 26.2164 63.4446 26.1884L63.4371 26.1839C63.2918 26.0918 63.1438 26.0036 62.993 25.9193L62.9871 25.9155C62.9393 25.889 62.8916 25.8631 62.8438 25.8373L62.8229 25.8261C62.5687 25.6901 62.3076 25.5654 62.0397 25.4519L62.0231 25.4447C61.9525 25.4148 61.8814 25.386 61.8096 25.3575H63.2224C63.4525 25.3575 63.6392 25.1064 63.6392 24.7962C63.6392 24.4859 63.4525 24.2348 63.2224 24.2348H62.8016C62.8276 24.1719 62.8564 24.1008 62.8876 24.0207C63.2855 23.7857 63.9858 23.285 64.6806 22.3651L64.6861 22.358C64.7387 22.2891 64.7904 22.2179 64.8412 22.1443L64.8515 22.1297C64.902 22.0575 64.9526 21.983 65.0023 21.9051L65.0157 21.8846C65.0394 21.8471 65.0631 21.8097 65.0868 21.7723C65.0868 21.7723 65.0868 21.7693 65.0895 21.7674C65.114 21.73 65.1381 21.6888 65.1622 21.6488L65.1776 21.623C65.1981 21.5885 65.219 21.5534 65.2391 21.5178C65.2431 21.5114 65.247 21.5051 65.2506 21.4983C65.2739 21.4579 65.2972 21.4168 65.3201 21.3752L65.3359 21.3464C65.3548 21.312 65.3734 21.2772 65.3919 21.242C65.3974 21.2323 65.403 21.2222 65.4081 21.212C65.4302 21.1698 65.4523 21.1271 65.4744 21.0837L65.4898 21.0534C65.5072 21.0182 65.5249 20.9823 65.5423 20.9463L65.5613 20.9089C65.5826 20.8648 65.6035 20.8198 65.6244 20.7746L65.6375 20.7457C65.6548 20.7083 65.6718 20.6709 65.6888 20.6335L65.7089 20.5886C65.7286 20.5433 65.7484 20.4976 65.7673 20.4516C65.7709 20.4434 65.7744 20.4347 65.7776 20.4265C65.7953 20.3842 65.8127 20.3412 65.8301 20.2978L65.8498 20.2484C65.866 20.2072 65.8822 20.1657 65.898 20.1241L65.9098 20.0927C65.9284 20.0433 65.9465 19.9928 65.9647 19.943L65.9836 19.8898C65.9979 19.8502 66.0117 19.8098 66.0255 19.7693C66.0306 19.7544 66.0358 19.7394 66.0405 19.7244C66.0579 19.6728 66.0752 19.62 66.0922 19.5672C66.0977 19.5489 66.1036 19.5298 66.1092 19.5126L66.1486 19.3895C66.1538 19.3715 66.1593 19.3521 66.1644 19.336C66.1806 19.2817 66.1968 19.2263 66.2122 19.1705C66.2173 19.153 66.2221 19.135 66.2268 19.117C66.2387 19.074 66.2505 19.031 66.2619 18.9872C66.2671 18.9673 66.2722 18.9475 66.2777 18.9277C66.2923 18.87 66.3069 18.812 66.3212 18.7533L66.333 18.7042C66.3441 18.6575 66.3551 18.6103 66.3658 18.5628L66.38 18.4992C66.3934 18.4382 66.4068 18.3772 66.4194 18.315C66.4222 18.303 66.4246 18.2907 66.4269 18.2776C66.438 18.2241 66.4487 18.1698 66.4589 18.1156C66.4633 18.0935 66.4672 18.0714 66.4716 18.0493C66.4818 17.9936 66.4917 17.937 66.5016 17.8813C66.5035 17.8693 66.5059 17.8577 66.5079 17.8461C66.5189 17.7802 66.5297 17.7139 66.5402 17.647C66.5438 17.6245 66.5473 17.6021 66.5505 17.5793C66.5588 17.525 66.5667 17.4704 66.5746 17.415L66.5817 17.3641C66.5912 17.2952 66.6002 17.226 66.6089 17.1556C66.6117 17.1335 66.6141 17.1115 66.6168 17.089C66.6237 17.0331 66.63 16.977 66.6358 16.9206C66.6381 16.9004 66.6405 16.8805 66.6425 16.8603C66.6501 16.788 66.6572 16.715 66.6638 16.6414C66.6638 16.6208 66.6674 16.6002 66.6689 16.5793C66.6741 16.5202 66.6792 16.4606 66.6835 16.4008C66.6835 16.3787 66.6871 16.3566 66.6887 16.3345C66.6942 16.2582 66.6993 16.1813 66.7041 16.104C66.7041 16.0864 66.7041 16.0666 66.7068 16.0509C66.7104 15.9865 66.7139 15.9217 66.7167 15.8566C66.7167 15.833 66.7167 15.8095 66.7199 15.7859C66.723 15.7054 66.7262 15.6246 66.7285 15.5426C66.7285 15.5314 66.7285 15.5198 66.7285 15.5082C66.7306 15.4353 66.7322 15.3617 66.7333 15.2874C66.7333 15.2631 66.7333 15.2387 66.7333 15.2144C66.7333 15.1346 66.7333 15.0542 66.7333 14.9734V14.9547C66.7333 14.8686 66.7333 14.7814 66.7333 14.6927V14.6179C66.7333 14.543 66.7301 14.4644 66.7281 14.3866V14.3443C66.7254 14.2545 66.7218 14.1635 66.7183 14.0722C66.7183 14.0486 66.7159 14.0247 66.7151 14.0011C66.7117 13.9243 66.7077 13.8469 66.7033 13.7691C66.7033 13.75 66.7033 13.7317 66.7001 13.7111C66.6946 13.6175 66.6885 13.5232 66.682 13.4282L66.6772 13.3619C66.6713 13.2826 66.6654 13.2029 66.6587 13.1224C66.6587 13.0992 66.6551 13.076 66.6531 13.0528C66.6449 12.9555 66.6358 12.8571 66.6263 12.7583C66.6263 12.7395 66.6223 12.7208 66.6208 12.7017C66.6125 12.6175 66.6034 12.5326 66.5943 12.4469C66.5916 12.4211 66.5888 12.3956 66.5856 12.3698C66.5746 12.268 66.5627 12.1658 66.5501 12.0622C66.5501 12.0494 66.5466 12.0367 66.545 12.0247C66.5337 11.9319 66.5217 11.8386 66.5091 11.7448C66.5051 11.7171 66.5016 11.6894 66.4976 11.6617C66.4829 11.5554 66.4677 11.4483 66.4522 11.3402C64.8732 0.684033 53.6836 2.41341 53.6836 2.41341L54.0421 4.70304L47.2749 11.4806L47.5706 14.0977L50.1341 15.5947C50.2483 15.3193 50.3951 15.057 50.5714 14.8129C52.2254 13.0041 55.4344 11.5843 56.3529 11.2897C56.5369 11.231 56.6415 11.2014 56.6415 11.2014C52.2475 16.5928 52.7473 22.7693 52.9431 24.2415C52.7394 24.279 52.5819 24.5121 52.5819 24.7966C52.5819 25.1064 52.7686 25.3579 52.9988 25.3579H54.4116C52.0619 26.2904 50.1967 28.0663 49.2234 30.2979C49.2222 30.301 49.2209 30.304 49.2194 30.3069C49.1476 30.4726 49.0807 30.6406 49.0189 30.811C49.019 30.8128 49.019 30.8145 49.0189 30.8163C49.0023 30.8627 48.9861 30.9091 48.9703 30.9559C48.9644 30.9727 48.9585 30.9895 48.953 31.0068C48.9388 31.0487 48.9256 31.091 48.9135 31.1336C48.9064 31.1553 48.8997 31.1774 48.893 31.1991C48.8803 31.2392 48.8681 31.2796 48.8563 31.32L48.8349 31.3948C48.8239 31.4323 48.8128 31.4723 48.8026 31.5112C48.7951 31.5389 48.788 31.5662 48.7809 31.5939C48.7714 31.6314 48.7615 31.6688 48.7524 31.7062C48.7434 31.7436 48.7347 31.7811 48.726 31.8207C48.7173 31.8604 48.7062 31.9068 48.6968 31.9502H48.1335C48.0251 31.948 47.9174 31.9662 47.8167 32.004C47.7159 32.0417 47.6241 32.0981 47.5466 32.17C47.4692 32.2418 47.4076 32.3276 47.3656 32.4223C47.3236 32.5169 47.302 32.6186 47.302 32.7214C47.302 32.8241 47.3236 32.9258 47.3656 33.0204C47.4076 33.1151 47.4692 33.2009 47.5466 33.2727C47.6241 33.3446 47.7159 33.401 47.8167 33.4387C47.9174 33.4765 48.0251 33.4947 48.1335 33.4925H68.0983C68.2066 33.4947 68.3143 33.4765 68.4151 33.4387C68.5159 33.401 68.6077 33.3446 68.6852 33.2727C68.7626 33.2009 68.8241 33.1151 68.8662 33.0204C68.9082 32.9258 68.9298 32.8241 68.9298 32.7214C68.9298 32.6186 68.9082 32.5169 68.8662 32.4223C68.8241 32.3276 68.7626 32.2418 68.6852 32.17C68.6077 32.0981 68.5159 32.0417 68.4151 32.004C68.3143 31.9662 68.2066 31.948 68.0983 31.9502L68.0912 31.9435Z" fill="#595653"/>
<path d="M91.4784 31.9435H90.9155C90.9155 31.9375 90.9127 31.9315 90.9116 31.9259L90.8962 31.857C90.8863 31.8117 90.8756 31.7668 90.8646 31.7223C90.8598 31.7013 90.8547 31.6804 90.8496 31.6594C90.835 31.6007 90.8196 31.5419 90.8038 31.4832L90.7991 31.4663C90.7817 31.4027 90.7635 31.3393 90.7446 31.2762L90.7256 31.2152C90.7126 31.1718 90.6988 31.1288 90.6862 31.0857C90.6787 31.0621 90.6708 31.0389 90.6633 31.0157C90.6494 30.9742 90.6352 30.9327 90.6206 30.8915C90.6131 30.8698 90.6052 30.8477 90.5977 30.8264C90.5793 30.7747 90.5604 30.7235 90.5409 30.6726C90.5365 30.6617 90.533 30.6512 90.5287 30.6404C90.5058 30.5805 90.4817 30.521 90.4572 30.4615C90.4485 30.4398 90.4394 30.4184 90.4304 30.3971C90.4138 30.3597 90.3972 30.3185 90.3802 30.2796L90.3483 30.2074C90.3317 30.1699 90.3147 30.1325 90.2973 30.0951C90.2867 30.0719 90.2756 30.0483 90.2646 30.0251C90.2444 29.9821 90.2251 29.9394 90.2026 29.8971C90.1943 29.881 90.1868 29.8646 90.1785 29.8481C90.1505 29.7923 90.1217 29.7358 90.0925 29.6819L90.053 29.6119L89.9973 29.5105L89.9539 29.4357C89.9357 29.4042 89.9176 29.3728 89.899 29.3414C89.8844 29.3159 89.8694 29.2905 89.8544 29.2665C89.8339 29.2325 89.8149 29.1992 89.7924 29.1655L89.7356 29.0742C89.7088 29.0322 89.6819 28.99 89.6543 28.9484C89.6369 28.9222 89.6195 28.8964 89.6018 28.8706C89.584 28.8447 89.5647 28.8152 89.5457 28.7879C89.5268 28.7605 89.5063 28.7332 89.4889 28.7063C89.4715 28.6793 89.4526 28.655 89.434 28.6314C89.4155 28.6079 89.3945 28.5764 89.3744 28.5491L89.3187 28.4742C89.2793 28.4245 89.243 28.3747 89.2043 28.3246L89.1502 28.2561C89.1273 28.2272 89.1036 28.1988 89.0803 28.1704L89.0282 28.1075C89.0041 28.0787 88.9797 28.0502 88.9552 28.0214L88.9039 27.9623L88.8273 27.8755L88.7819 27.8253C88.6875 27.7216 88.5908 27.6195 88.4917 27.5199L88.4483 27.4761L88.3575 27.3874L88.3129 27.3448C88.2813 27.3145 88.2498 27.2845 88.2178 27.255L88.185 27.225C88.0733 27.1221 87.9584 27.0218 87.8416 26.9256L87.8096 26.8991C87.7736 26.8691 87.7372 26.8395 87.7007 26.8104L87.6643 26.7812C87.6249 26.7512 87.589 26.7217 87.5507 26.6921L87.5313 26.6775C87.4022 26.5787 87.27 26.4825 87.1366 26.3901L87.118 26.377C87.0758 26.3482 87.0335 26.3197 86.9909 26.2917L86.9629 26.2733C86.9195 26.2445 86.8756 26.2164 86.8318 26.1884L86.8243 26.1839C86.6791 26.0918 86.531 26.0036 86.3802 25.9193L86.3743 25.9155C86.3265 25.889 86.2788 25.8631 86.231 25.8373L86.2101 25.8261C85.9559 25.6901 85.6948 25.5654 85.4269 25.4519L85.4103 25.4447C85.3397 25.4148 85.2686 25.386 85.1968 25.3575H86.6096C86.8397 25.3575 87.0264 25.1064 87.0264 24.7962C87.0264 24.4859 86.8397 24.2348 86.6096 24.2348H86.1888C86.2148 24.1719 86.2436 24.1008 86.2748 24.0207C86.6727 23.7857 87.373 23.285 88.0678 22.3651L88.0733 22.358C88.1259 22.2891 88.1777 22.2179 88.2284 22.1443L88.2387 22.1297C88.2892 22.0575 88.3398 21.983 88.3895 21.9051L88.4029 21.8846C88.4266 21.8471 88.4503 21.8097 88.474 21.7723C88.474 21.7723 88.474 21.7693 88.4767 21.7674C88.5012 21.73 88.5253 21.6888 88.5494 21.6488L88.5648 21.623C88.5853 21.5885 88.6062 21.5534 88.6264 21.5178C88.6303 21.5114 88.6342 21.5051 88.6378 21.4983C88.6611 21.4579 88.6844 21.4168 88.7073 21.3752L88.7231 21.3464C88.742 21.312 88.7606 21.2772 88.7791 21.242C88.7847 21.2323 88.7902 21.2222 88.7953 21.212C88.8174 21.1698 88.8395 21.1271 88.8616 21.0837L88.877 21.0534C88.8944 21.0182 88.9122 20.9823 88.9295 20.9463L88.9485 20.9089C88.9698 20.8648 88.9907 20.8198 89.0116 20.7746L89.0247 20.7457C89.042 20.7083 89.059 20.6709 89.076 20.6335L89.0961 20.5886C89.1158 20.5433 89.1356 20.4976 89.1545 20.4516C89.1581 20.4434 89.1616 20.4347 89.1648 20.4265C89.1826 20.3842 89.1999 20.3412 89.2173 20.2978L89.237 20.2484C89.2532 20.2072 89.2694 20.1657 89.2852 20.1241L89.297 20.0927C89.3156 20.0433 89.3337 19.9928 89.3519 19.943L89.3709 19.8898C89.3851 19.8502 89.3989 19.8098 89.4127 19.7693C89.4178 19.7544 89.423 19.7394 89.4277 19.7244C89.4451 19.6728 89.4624 19.62 89.4794 19.5672C89.4849 19.5489 89.4909 19.5298 89.4964 19.5126L89.5359 19.3895C89.541 19.3715 89.5465 19.3521 89.5516 19.336C89.5678 19.2817 89.584 19.2263 89.5994 19.1705C89.6045 19.153 89.6093 19.135 89.614 19.117C89.6259 19.074 89.6377 19.031 89.6491 18.9872C89.6543 18.9673 89.6594 18.9475 89.6649 18.9277C89.6795 18.87 89.6942 18.812 89.7084 18.7533L89.7202 18.7042C89.7313 18.6575 89.7423 18.6103 89.753 18.5628L89.7672 18.4992C89.7806 18.4382 89.794 18.3772 89.8067 18.315C89.8094 18.303 89.8118 18.2907 89.8142 18.2776C89.8252 18.2241 89.8359 18.1698 89.8461 18.1156C89.8505 18.0935 89.8544 18.0714 89.8588 18.0493C89.869 17.9936 89.8789 17.937 89.8888 17.8813C89.8907 17.8693 89.8931 17.8577 89.8951 17.8461C89.9061 17.7802 89.9169 17.7139 89.9274 17.647C89.931 17.6245 89.9346 17.6021 89.9377 17.5793C89.946 17.525 89.9539 17.4704 89.9618 17.415L89.9689 17.3641C89.9784 17.2952 89.9875 17.226 89.9961 17.1556C89.9989 17.1335 90.0013 17.1115 90.004 17.089C90.0109 17.0331 90.0172 16.977 90.023 16.9206C90.0253 16.9004 90.0277 16.8805 90.0297 16.8603C90.0373 16.788 90.0444 16.715 90.051 16.6414C90.051 16.6208 90.0546 16.6002 90.0561 16.5793C90.0613 16.5202 90.0664 16.4606 90.0707 16.4008C90.0707 16.3787 90.0743 16.3566 90.0759 16.3345C90.0814 16.2582 90.0865 16.1813 90.0913 16.104C90.0913 16.0864 90.0913 16.0666 90.094 16.0509C90.0976 15.9865 90.1011 15.9217 90.1039 15.8566C90.1039 15.833 90.1039 15.8095 90.1071 15.7859C90.1102 15.7054 90.1134 15.6246 90.1157 15.5426C90.1157 15.5314 90.1157 15.5198 90.1157 15.5082C90.1179 15.4353 90.1194 15.3617 90.1205 15.2874C90.1205 15.2631 90.1205 15.2387 90.1205 15.2144C90.1205 15.1346 90.1205 15.0542 90.1205 14.9734V14.9547C90.1205 14.8686 90.1205 14.7814 90.1205 14.6927V14.6179C90.1205 14.543 90.1173 14.4644 90.1154 14.3866V14.3443C90.1126 14.2545 90.109 14.1635 90.1055 14.0722C90.1055 14.0486 90.1031 14.0247 90.1023 14.0011C90.0989 13.9243 90.095 13.8469 90.0905 13.7691C90.0905 13.75 90.0905 13.7317 90.0873 13.7111C90.0818 13.6175 90.0757 13.5232 90.0692 13.4282L90.0644 13.3619C90.0585 13.2826 90.0526 13.2029 90.0459 13.1224C90.0459 13.0992 90.0423 13.076 90.0403 13.0528C90.0321 12.9555 90.023 12.8571 90.0135 12.7583C90.0135 12.7395 90.0096 12.7208 90.008 12.7017C89.9997 12.6175 89.9906 12.5326 89.9815 12.4469C89.9788 12.4211 89.976 12.3956 89.9728 12.3698C89.9618 12.268 89.95 12.1658 89.9373 12.0622C89.9373 12.0494 89.9338 12.0367 89.9322 12.0247C89.9209 11.9319 89.9089 11.8386 89.8963 11.7448C89.8923 11.7171 89.8888 11.6894 89.8848 11.6617C89.8701 11.5554 89.8549 11.4483 89.8394 11.3402C88.2604 0.684033 77.0709 2.41341 77.0709 2.41341L77.4293 4.70304L70.6621 11.4806L70.9578 14.0977L73.5213 15.5947C73.6355 15.3193 73.7823 15.057 73.9586 14.8129C75.6126 13.0041 78.8216 11.5843 79.7401 11.2897C79.9241 11.231 80.0287 11.2014 80.0287 11.2014C75.6348 16.5928 76.1345 22.7693 76.3303 24.2415C76.1266 24.279 75.9691 24.5121 75.9691 24.7966C75.9691 25.1064 76.1558 25.3579 76.386 25.3579H77.7988C75.4491 26.2904 73.5839 28.0663 72.6106 30.2979C72.6094 30.301 72.6081 30.304 72.6066 30.3069C72.5348 30.4726 72.4679 30.6406 72.4061 30.811C72.4062 30.8128 72.4062 30.8145 72.4061 30.8163C72.3895 30.8627 72.3733 30.9091 72.3575 30.9559C72.3516 30.9727 72.3457 30.9895 72.3402 31.0068C72.326 31.0487 72.3128 31.091 72.3007 31.1336C72.2936 31.1553 72.2869 31.1774 72.2802 31.1991C72.2675 31.2392 72.2553 31.2796 72.2435 31.32L72.2221 31.3948C72.2111 31.4323 72.2 31.4723 72.1898 31.5112C72.1823 31.5389 72.1752 31.5662 72.1681 31.5939C72.1586 31.6314 72.1487 31.6688 72.1396 31.7062C72.1306 31.7436 72.1219 31.7811 72.1132 31.8207C72.1045 31.8604 72.0935 31.9068 72.084 31.9502H71.5207C71.4124 31.948 71.3046 31.9662 71.2039 32.004C71.1031 32.0417 71.0113 32.0981 70.9338 32.17C70.8564 32.2418 70.7948 32.3276 70.7528 32.4223C70.7108 32.5169 70.6892 32.6186 70.6892 32.7214C70.6892 32.8241 70.7108 32.9258 70.7528 33.0204C70.7948 33.1151 70.8564 33.2009 70.9338 33.2727C71.0113 33.3446 71.1031 33.401 71.2039 33.4387C71.3046 33.4765 71.4124 33.4947 71.5207 33.4925H91.4855C91.5938 33.4947 91.7016 33.4765 91.8023 33.4387C91.9031 33.401 91.9949 33.3446 92.0724 33.2727C92.1498 33.2009 92.2114 33.1151 92.2534 33.0204C92.2954 32.9258 92.317 32.8241 92.317 32.7214C92.317 32.6186 92.2954 32.5169 92.2534 32.4223C92.2114 32.3276 92.1498 32.2418 92.0724 32.17C91.9949 32.0981 91.9031 32.0417 91.8023 32.004C91.7016 31.9662 91.5938 31.948 91.4855 31.9502L91.4784 31.9435Z" fill="#595653"/>
<path d="M99.8346 15V3.34411H102.832V7.95652H103.664L107.228 3.34411H110.491L105.996 8.78908L110.658 15H107.161L103.664 10.0546H102.832V15H99.8346ZM112.323 15.2165C112.234 15.2165 112.107 15.2109 111.94 15.1998C111.785 15.1998 111.663 15.1887 111.574 15.1665V12.5356C111.607 12.5467 111.69 12.5523 111.824 12.5523C112.046 12.5523 112.234 12.5245 112.39 12.469C112.556 12.4024 112.695 12.2692 112.806 12.0694C112.917 11.8585 113.011 11.5532 113.089 11.1536C113.178 10.7539 113.239 10.2211 113.272 9.55504C113.305 8.87788 113.322 8.02867 113.322 7.00739V3.34411H122.147V15H119.133V5.79185H116.12V7.34042C116.12 8.72802 116.064 9.89361 115.953 10.8372C115.842 11.7697 115.675 12.5245 115.453 13.1018C115.243 13.679 114.982 14.123 114.671 14.4339C114.36 14.7336 114.005 14.9389 113.605 15.05C113.217 15.161 112.789 15.2165 112.323 15.2165ZM126.817 15.2165C126.695 15.2165 126.573 15.2109 126.451 15.1998C126.34 15.1998 126.24 15.1832 126.151 15.1499V12.6688C126.24 12.6799 126.329 12.691 126.418 12.7021C126.507 12.7132 126.612 12.7188 126.734 12.7188C127.056 12.7188 127.306 12.6966 127.483 12.6522C127.661 12.5967 127.8 12.5079 127.9 12.3858C128 12.2525 128.083 12.0749 128.15 11.8529L123.471 3.34411H126.518L129.615 9.25531L132.046 3.34411H134.977L131.08 12.1526C130.825 12.7299 130.57 13.2128 130.314 13.6013C130.07 13.9898 129.787 14.3062 129.465 14.5504C129.154 14.7835 128.782 14.95 128.349 15.05C127.928 15.161 127.417 15.2165 126.817 15.2165ZM136.308 15V3.34411H144.883V5.8085H139.305V7.54023H141.22C142.841 7.54023 144.034 7.87326 144.8 8.53931C145.577 9.19426 145.966 10.0768 145.966 11.1869C145.966 12.3858 145.577 13.3238 144.8 14.0009C144.034 14.667 142.841 15 141.22 15H136.308ZM139.305 12.5356H140.887C141.609 12.5356 142.119 12.4191 142.419 12.1859C142.719 11.9417 142.869 11.6087 142.869 11.1869C142.869 10.765 142.719 10.4376 142.419 10.2044C142.119 9.96022 141.609 9.83811 140.887 9.83811H139.305V12.5356ZM105.896 33V28.3543C105.607 28.543 105.224 28.7151 104.747 28.8705C104.28 29.0148 103.725 29.087 103.082 29.087C101.872 29.087 100.956 28.7872 100.334 28.1878C99.7236 27.5772 99.4183 26.6004 99.4183 25.2572V21.3441H102.416V24.7576C102.416 25.4126 102.554 25.8844 102.832 26.173C103.109 26.4505 103.498 26.5893 103.997 26.5893C104.453 26.5893 104.836 26.5393 105.146 26.4394C105.457 26.3284 105.707 26.2118 105.896 26.0897V21.3441H108.91V33H105.896ZM111.234 33V21.3441H119.726V23.642H114.231V25.9232H119.226V28.0879H114.231V30.7021H119.726V33H111.234ZM124.713 33V23.8085H121.133V21.3441H131.291V23.8085H127.711V33H124.713ZM132.796 33V21.3441H135.793V25.2072H137.208C138.829 25.2072 140.022 25.5569 140.788 26.2562C141.565 26.9556 141.954 27.9047 141.954 29.1036C141.954 30.3025 141.565 31.2516 140.788 31.951C140.022 32.6503 138.829 33 137.208 33H132.796ZM135.793 30.5356H136.875C137.575 30.5356 138.08 30.4024 138.39 30.136C138.701 29.8696 138.857 29.5254 138.857 29.1036C138.857 28.6818 138.701 28.3376 138.39 28.0712C138.08 27.8048 137.575 27.6716 136.875 27.6716H135.793V30.5356ZM142.786 33V21.3441H145.784V33H142.786ZM148.114 33V21.3441H152.859C153.947 21.3441 154.841 21.5051 155.54 21.827C156.239 22.1378 156.756 22.593 157.089 23.1924C157.433 23.7807 157.605 24.4912 157.605 25.3238C157.605 26.1452 157.433 26.8557 157.089 27.4551C156.756 28.0546 156.239 28.5153 155.54 28.8372C154.841 29.148 153.947 29.3034 152.859 29.3034H151.111V33H148.114ZM151.111 26.839H152.526C153.292 26.839 153.83 26.7114 154.141 26.4561C154.452 26.2007 154.607 25.8233 154.607 25.3238C154.607 24.8242 154.452 24.4468 154.141 24.1915C153.83 23.9362 153.292 23.8085 152.526 23.8085H151.111V26.839ZM159.269 33V21.3441H167.761V23.642H162.266V25.9232H167.261V28.0879H162.266V30.7021H167.761V33H159.269ZM168.922 33L172.719 26.9223L169.089 21.3441H172.402L174.684 24.8742L176.998 21.3441H180.245L176.632 26.889L180.412 33H177.065L174.634 28.9204L172.203 33H168.922ZM186.152 33V21.3441H189.149V25.9565H189.982L193.545 21.3441H196.809L192.313 26.7891L196.975 33H193.478L189.982 28.0546H189.149V33H186.152ZM203.479 33.2165C202.724 33.2165 202.003 33.1055 201.314 32.8834C200.626 32.6614 200.021 32.3117 199.499 31.8344C198.978 31.3571 198.567 30.741 198.267 29.9861C197.967 29.2202 197.818 28.3099 197.818 27.2553V26.9223C197.818 25.901 197.967 25.024 198.267 24.2914C198.567 23.5587 198.978 22.9593 199.499 22.4931C200.021 22.0268 200.626 21.6827 201.314 21.4607C202.003 21.2387 202.724 21.1276 203.479 21.1276C204.256 21.1276 204.983 21.2387 205.66 21.4607C206.337 21.6827 206.937 22.0268 207.459 22.4931C207.98 22.9593 208.391 23.5587 208.691 24.2914C208.991 25.024 209.14 25.901 209.14 26.9223V27.2553C209.14 28.3099 208.991 29.2202 208.691 29.9861C208.391 30.741 207.98 31.3571 207.459 31.8344C206.937 32.3117 206.337 32.6614 205.66 32.8834C204.983 33.1055 204.256 33.2165 203.479 33.2165ZM203.462 30.7188C203.917 30.7188 204.339 30.6189 204.728 30.4191C205.116 30.2081 205.427 29.8585 205.66 29.37C205.904 28.8705 206.027 28.1656 206.027 27.2553V26.9223C206.027 26.0564 205.904 25.3848 205.66 24.9075C205.427 24.4301 205.116 24.0971 204.728 23.9084C204.339 23.7197 203.917 23.6253 203.462 23.6253C203.029 23.6253 202.619 23.7197 202.23 23.9084C201.842 24.0971 201.525 24.4301 201.281 24.9075C201.037 25.3848 200.915 26.0564 200.915 26.9223V27.2553C200.915 28.1656 201.037 28.8705 201.281 29.37C201.525 29.8585 201.842 30.2081 202.23 30.4191C202.619 30.6189 203.029 30.7188 203.462 30.7188ZM211.047 33V21.3441H214.045V25.7734H218.374V21.3441H221.371V33H218.374V28.2377H214.045V33H211.047ZM223.699 33V21.3441H232.191V23.642H226.696V25.9232H231.691V28.0879H226.696V30.7021H232.191V33H223.699ZM234.106 33V21.3441H237.103V28.3376L241.682 21.3441H244.429V33H241.432V26.0065L236.853 33H234.106ZM239.267 20.6947C238.49 20.6947 237.852 20.5893 237.353 20.3783C236.864 20.1563 236.503 19.8344 236.27 19.4126C236.048 18.9907 235.937 18.4634 235.937 17.8307H238.368C238.368 18.2969 238.435 18.6133 238.568 18.7798C238.712 18.9352 238.946 19.0129 239.267 19.0129C239.589 19.0129 239.817 18.9352 239.95 18.7798C240.094 18.6133 240.167 18.2969 240.167 17.8307H242.598C242.598 18.4634 242.481 18.9907 242.248 19.4126C242.026 19.8344 241.671 20.1563 241.182 20.3783C240.694 20.5893 240.056 20.6947 239.267 20.6947Z" fill="#595653"/>
</svg>
