<svg width="224" height="255" viewBox="0 0 224 255" fill="none" xmlns="http://www.w3.org/2000/svg">
<path d="M111.015 110.909L111.412 111.131L111.557 111.735L108.565 118.832C108.38 118.645 108.238 118.468 108.082 118.258C108.345 117.757 108.483 117.19 108.714 116.671L111.015 110.909Z" fill="#010000"/>
<path d="M122.938 86.6997L123.565 86.6221C123.162 91.5101 121.082 95.9378 117.333 99.1501C117.137 99.318 116.996 99.4176 116.759 99.5284C115.37 99.0613 113.958 98.3164 112.72 97.5335L112.866 97.2626C114.063 97.6155 115.363 98.4062 116.516 98.9358C116.79 98.7743 117.025 98.6069 117.268 98.3999C120.336 95.7762 122.62 90.6676 122.938 86.6997Z" fill="#010000"/>
<path d="M112.866 97.263L112.775 96.9985L123.005 85.1045L122.937 86.7002C122.619 90.6681 120.336 95.7767 117.267 98.4004C117.024 98.6073 116.79 98.7748 116.516 98.9363C115.363 98.4067 114.063 97.616 112.866 97.263Z" fill="#0C0C0C"/>
<path d="M111.015 110.909L113.327 105.277C114.135 103.391 114.922 100.871 116.693 99.7133L117.107 99.4111C120.992 101.436 123.178 106.666 124.413 110.655C125.073 112.787 125.276 114.846 125.053 117.064C124.5 116.423 124.123 115.401 123.699 114.65C122.618 112.731 121.545 111.08 120.756 109.007C120.681 110.495 120.744 112.944 119.742 114.125L119.587 114.321L119.482 114.452C119.981 116.384 121.512 118.074 121.721 120.143L119.802 116.071C118.984 118.899 117.952 122.011 116.506 124.577C116.332 124.886 116.086 125.488 115.797 125.685L115.741 125.537C115.058 123.787 114.176 122.16 113.532 120.386C113.382 119.969 113.521 119.628 113.633 119.216C113.881 118.305 114.791 116.234 114.599 115.348C114.485 114.819 113.732 113.913 113.46 113.36C112.934 112.291 112.454 111.166 112.088 110.031C111.933 110.61 111.793 111.184 111.557 111.735L111.412 111.131L111.015 110.909Z" fill="#0C0C0C"/>
<path fill-rule="evenodd" clip-rule="evenodd" d="M97.0319 87.8734L112.72 97.5338L112.866 97.2629L112.776 96.9983L123.006 85.1044L122.937 86.7L123.565 86.6224C123.568 86.4888 123.567 86.3453 123.566 86.1968C123.562 85.6773 123.558 85.0963 123.73 84.6616C123.995 83.9891 123.93 83.0532 123.873 82.2331C123.858 82.0038 123.842 81.7835 123.835 81.5806L127.961 82.716C130.115 83.1367 132.659 83.0728 134.517 81.7788C135.348 81.1999 136.057 80.2456 136.367 79.2816C136.534 78.7671 136.628 78.2136 136.684 77.6757C136.743 77.1101 136.768 76.5384 136.793 75.9661C136.837 74.951 136.881 73.9339 137.12 72.9453C137.314 72.1413 137.589 71.3583 137.863 70.5751C138.208 69.5924 138.552 68.6094 138.738 67.5848L138.771 67.3876C138.865 66.8712 138.887 66.5329 138.766 66.016L138.61 65.2706L138.61 65.2701C138.679 64.9841 138.736 64.6959 138.792 64.4079C138.907 63.8206 139.022 63.2346 139.247 62.672C139.378 62.3429 139.543 62.0186 139.708 61.6935C139.943 61.2283 140.18 60.7615 140.323 60.2768C140.417 59.956 140.457 59.6218 140.497 59.2874C140.53 59.0118 140.564 58.7361 140.627 58.4678C140.765 57.8861 140.924 57.3184 141.081 56.7541C141.443 55.4595 141.799 54.1825 141.893 52.7935C141.993 51.3135 141.819 49.7808 141.602 48.3174C141.58 48.1721 141.525 47.9604 141.466 47.7321C141.36 47.3261 141.241 46.868 141.274 46.6393C141.282 46.5797 141.43 46.3695 141.537 46.2183C141.58 46.1574 141.616 46.1061 141.634 46.0779C142.101 45.3301 142.279 44.9733 142.284 44.0576C141.808 43.8391 141.251 43.8152 140.699 43.7915C140.368 43.7773 140.038 43.7631 139.728 43.7071C139.285 43.627 138.704 43.6143 138.266 43.8138C138.705 43.6142 139.285 43.6268 139.728 43.707C140.038 43.763 140.368 43.7771 140.699 43.7913C141.252 43.8151 141.808 43.839 142.284 44.0575L142.465 43.8734C143.027 43.2032 143.938 41.5437 144.358 39.9397C144.51 38.5713 144.231 36.9586 143.954 35.358C143.786 34.3893 143.619 33.4251 143.549 32.5222C143.785 32.3397 144.029 32.1597 144.276 31.9785C144.87 31.5417 145.473 31.0978 145.983 30.5942C147.566 29.0297 148.712 26.5665 148.965 24.3629C149.225 22.0938 148.561 19.7354 147.103 17.974C146.13 16.799 145.107 16.2642 143.651 15.8682C143.569 15.846 143.54 15.846 143.527 15.8312C143.511 15.8138 143.519 15.7758 143.491 15.6566C144.481 12.4399 144.604 9.3792 143.002 6.30425C141.701 3.80806 139.721 3.08673 137.037 2.6804C136.304 4.30703 134.84 4.89552 133.492 4.97202C131.609 5.07889 129.426 4.19508 127.463 3.40035C126.815 3.13763 126.19 2.88465 125.608 2.6804C117.611 -0.126867 107.176 -2.3236 100.595 4.67413C100.036 5.26748 99.5169 5.9201 99.0708 6.60156C99.0057 6.70092 98.9135 6.86884 98.808 7.06087C98.5574 7.51697 98.2322 8.10902 98.0189 8.2412C97.8034 8.37466 97.193 8.42985 96.6629 8.47777C96.3706 8.5042 96.1028 8.52842 95.939 8.56233C94.6157 8.83622 93.3974 9.39472 92.2264 10.0561C84.026 14.6871 82.4581 25.019 82.7891 33.6337C83.1552 43.1627 86.7394 51.7243 91.3614 59.9184C91.5593 60.2691 91.7621 60.6585 91.9728 61.063C92.6207 62.3069 93.3433 63.6943 94.2277 64.5433C94.6108 64.9109 95.0399 65.1271 95.5329 65.3058C95.6896 65.8438 95.6075 66.6077 95.5355 67.2783C95.5104 67.5124 95.4864 67.7351 95.4743 67.9328C95.2664 71.3228 94.9613 74.8036 94.3023 78.1374L94.1696 78.1448L93.9489 78.1667L93.7996 78.1779C92.9503 78.2585 92.1849 78.811 91.6714 79.4719C91.2233 80.0479 90.865 80.7396 90.9607 81.4893C91.2689 83.9066 94.3247 86.0085 96.3965 87.4335C96.6215 87.5883 96.8349 87.7351 97.0319 87.8734ZM136.898 45.2201L136.703 45.1289L136.716 44.3001C136.73 44.0861 136.698 44.0405 136.612 43.9199C136.59 43.8897 136.565 43.8548 136.537 43.8115C136.537 43.8116 136.537 43.8117 136.537 43.8118C136.565 43.8551 136.59 43.8899 136.611 43.92C136.697 44.0406 136.73 44.0862 136.716 44.3002L136.703 45.129L136.898 45.2203L136.898 45.2201ZM139.232 60.8156L138.364 61.0884L138.364 61.0886L139.232 60.8157C139.232 60.8157 139.232 60.8156 139.232 60.8156ZM138.126 61.1665L137.356 61.3808L137.356 61.3809L138.125 61.1667L138.126 61.1665Z" fill="#0C0C0C"/>
<path d="M115.608 211.337L119.228 211.336C119.52 211.336 120.207 211.253 120.449 211.336C120.55 211.37 120.611 211.475 120.691 211.544L120.618 211.761L116.854 211.802C116.435 211.797 115.856 211.879 115.502 211.645L115.608 211.337Z" fill="#010000"/>
<path d="M113.04 204.055C113.915 204.67 114.915 204.508 115.954 204.517L120.341 204.544C120.036 204.789 119.48 204.689 119.081 204.689L115.221 204.695C115.313 204.959 115.333 204.922 115.553 205.066C114.793 205.084 113.93 205.015 113.206 205.26C112.987 205.614 113.028 205.791 113.024 206.2L112.901 206.061C112.834 205.752 112.79 205.624 112.895 205.318C113.035 204.905 113.026 204.488 113.04 204.055Z" fill="#161515"/>
<path d="M129.782 219.605L133.978 219.619C134.622 219.621 135.397 219.539 136.027 219.636L135.85 219.791L132.07 219.818L131.899 220.101C132.296 220.364 133.218 220.25 133.713 220.254L138.745 220.257C139.482 220.255 140.449 220.127 141.139 220.33C139.816 220.534 138.375 220.437 137.035 220.442L129.687 220.416L129.938 219.977L129.782 219.605Z" fill="#161515"/>
<path d="M133.996 195.557L137.82 195.496C139.136 195.858 140.827 195.657 142.198 195.649L142.143 195.839C141.696 196.036 141.196 195.933 140.727 196.024C139.923 196.164 138.906 196.046 138.081 196.039L131.922 195.981L131.886 195.839L131.261 195.792L131.189 195.649L133.831 195.577L133.996 195.557Z" fill="#010000"/>
<path d="M148.078 231.331L162.737 231.38C162.141 231.938 151.007 231.227 150.671 231.576C150.606 231.643 150.594 231.746 150.555 231.831C151.052 232.186 151.832 231.911 152.407 232.177L148.292 232.131C148.028 232.434 147.997 232.853 147.918 233.234C147.889 232.818 147.837 232.409 147.969 232.006C148.052 231.75 148.077 231.597 148.078 231.331Z" fill="#161515"/>
<path d="M120.054 208.335C120.64 208.32 121.644 208.172 122.195 208.289C122.625 208.32 123.065 208.271 123.429 208.511C123.374 208.575 123.162 208.778 123.159 208.858L114.538 208.854L114.467 208.696L113.171 208.655L113.312 208.473C113.859 208.348 114.378 208.438 114.931 208.46C115.703 208.493 119.662 208.698 120.054 208.335Z" fill="#010000"/>
<path d="M139.073 181.781L143.717 181.872C143.633 182.104 143.624 182.333 143.405 182.462L140.112 182.318C140.054 182.214 140.085 182.064 140.086 181.945C139.72 181.937 139.362 182.016 139.073 181.781Z" fill="#161515"/>
<path d="M129.582 240.789C129.779 241.06 129.92 241.352 130.069 241.65C130.182 241.873 130.159 241.745 130.06 242.044C128.076 242.679 125.383 242.367 123.304 242.368L113.768 242.351C111.411 242.333 108.742 242.545 106.422 242.222C105.926 242.153 105.796 242.124 105.512 241.725C105.576 241.294 105.589 241.196 105.9 240.89C106.127 240.667 106.693 240.262 106.996 240.159C107.188 240.093 107.719 240.167 107.938 240.17L110.289 240.198L128.419 240.179C128.785 240.216 129.266 240.588 129.582 240.789Z" fill="#FBFAFC"/>
<path d="M147.649 228.212L156.973 228.341C158.143 228.337 159.775 228.116 160.898 228.351L161.082 228.371C161.917 228.455 162.805 228.259 163.604 228.411L163.663 228.78C164.282 228.779 164.838 228.907 165.279 229.379C165.516 229.634 165.585 229.859 165.604 230.205C165.405 230.666 165.248 231.008 164.758 231.199C164.172 231.428 163.363 231.369 162.737 231.38L148.078 231.331C147.866 230.647 147.776 229.967 147.523 229.282C147.439 229.053 147.485 229.011 147.538 228.781L147.449 228.442L147.649 228.212Z" fill="white"/>
<path d="M147.649 228.212L156.973 228.341C158.143 228.337 159.775 228.116 160.898 228.351L161.082 228.371C161.917 228.455 162.805 228.259 163.604 228.411L163.663 228.78C160.62 229.246 157.229 228.997 154.15 228.993C152.096 228.99 149.515 229.242 147.538 228.781L147.449 228.442L147.649 228.212Z" fill="#010000"/>
<path d="M130.621 242.997L130.779 243.118C130.81 243.84 130.977 245.252 130.484 245.796C129.286 246.232 127.682 246.056 126.408 246.06L119.318 246.06C114.79 246.055 110.12 246.285 105.609 245.958L105.438 245.867C105.18 245.679 105.174 245.516 105.123 245.219C105.018 244.598 104.95 243.829 105.326 243.288C106.323 242.945 107.588 243.054 108.641 243.058L114.377 243.098L130.621 242.997Z" fill="white"/>
<path d="M113.15 229.995L122.578 230.036C123.69 230.032 125.057 229.85 126.14 230.004L126.208 230.193L126.396 230.698C126.552 231.113 126.634 231.391 127.021 231.648C128.88 232.087 131.192 231.874 133.117 231.888C133.622 231.891 134.377 231.797 134.842 231.909L134.96 231.952C135.249 232.057 135.398 232.109 135.715 232.113C135.638 232.265 135.673 232.263 135.514 232.327C135.127 232.481 134.584 232.407 134.172 232.408C132.957 232.411 131.538 232.268 130.356 232.485L130.543 232.505C132.214 232.666 133.933 232.604 135.614 232.619C136.265 232.624 137.137 232.527 137.757 232.705C137.865 233.261 138.176 234.127 137.975 234.643L136.97 234.604L137.409 234.942C136.998 235.1 136.574 235.133 136.14 235.189C137.262 235.27 138.557 235.223 139.554 235.788L139.586 236C139.28 236.142 139.011 236.189 138.681 236.247L138.496 236.495C138.667 236.899 138.751 236.892 139.164 237.051C139.51 237.184 139.872 237.241 140.236 237.301C140.425 237.72 140.332 238.299 140.313 238.756C139.679 239.115 138.61 238.897 137.866 238.961C137.453 239.299 131.518 239.102 130.493 239.101L130.272 238.969C130.286 238.648 130.344 238.488 130.413 238.191L130.378 237.307L130.356 237.436C130.175 238.304 129.64 238.947 128.901 239.415C128.594 239.61 128.364 239.679 128.011 239.746L128.542 239.841C128.783 239.89 128.85 240.009 129.048 240.122L129.247 240.205L129.318 239.711C129.858 239.325 136.973 239.534 138.116 239.534L138.186 239.608L136.606 239.633L136.53 239.766L131.566 239.797C131.113 239.799 130.262 239.686 129.848 239.802C129.728 239.835 129.651 239.953 129.553 240.028L129.704 240.675L129.582 240.788C129.266 240.588 128.785 240.216 128.419 240.179L110.289 240.197C109.795 240.007 109.242 239.975 108.718 239.9L108.669 239.743L112.939 239.731C113.406 239.731 114.513 239.862 114.823 239.555C117.977 239.373 121.201 239.505 124.361 239.51C125.551 239.512 126.985 239.664 128.152 239.424C129.075 239.235 129.625 238.339 130.086 237.599C129.35 235.788 127.829 235.027 126.44 233.811C125.496 232.985 125.557 232.01 125.459 230.839L114.245 230.762C113.865 230.631 113.496 230.606 113.1 230.561L113.15 229.995Z" fill="#010000"/>
<path d="M136.97 234.604L131.07 234.474C130.253 234.459 129.002 234.569 128.244 234.252C127.274 233.846 127.001 233.265 126.59 232.362L130.356 232.485L130.543 232.505C132.214 232.666 133.934 232.604 135.614 232.619C136.265 232.624 149.84 232.527 150.46 232.705C150.567 233.261 150.878 234.127 150.677 234.643L136.97 234.604Z" fill="white"/>
<path d="M132.226 238.873C131.705 238.872 131.063 238.957 130.583 238.756C130.653 238.499 130.698 238.238 130.705 237.971C130.738 236.818 129.711 235.847 128.954 235.09L136.14 235.188C141.674 235.188 144.846 235.237 151.436 235.237C152.412 236.896 152.656 238.961 148.263 238.961C142.917 238.961 137.572 238.953 132.226 238.873Z" fill="white"/>
<path d="M110.886 229.942L113.15 229.995L113.1 230.561C113.496 230.606 113.866 230.632 114.245 230.762L125.459 230.839C125.557 232.011 125.496 232.985 126.44 233.811C127.829 235.027 129.35 235.789 130.086 237.599C129.625 238.339 129.075 239.235 128.152 239.425C126.985 239.664 125.551 239.512 124.361 239.51C121.202 239.505 117.977 239.373 114.823 239.555C114.14 239.425 113.229 239.534 112.512 239.53L107.18 239.472C106.827 239.284 106.495 238.835 106.316 238.485C105.174 236.261 109.092 234.259 110.152 232.82C110.537 232.299 110.776 231.497 110.975 230.884L111.012 230.77C111.002 230.492 110.981 230.593 111.062 230.341L111.121 230.172L110.886 229.942Z" fill="white"/>
<path d="M110.886 229.942L113.15 229.995L113.099 230.561C113.496 230.606 113.865 230.632 114.244 230.762L111.011 230.77C111.001 230.492 110.98 230.593 111.061 230.341L111.121 230.172L110.886 229.942Z" fill="#161515"/>
<path fill-rule="evenodd" clip-rule="evenodd" d="M82.6376 88.7297L80.6675 90.587C79.483 91.6899 78.3672 92.2162 77.0334 92.8454C76.6639 93.0197 76.2778 93.2019 75.8688 93.4064L53.4755 103.43L47.1256 107.722C47.0001 107.816 46.8721 107.911 46.7429 108.006C45.9422 108.598 45.0926 109.225 44.479 109.984C43.0129 111.798 42.423 114.389 41.9086 116.648C41.8798 116.774 41.8512 116.9 41.8227 117.024L40.2709 125.029L36.0253 152.06L31.7342 183.606L29.8306 198.315C29.3507 202.26 28.8846 206.291 29.0149 210.272C29.1506 214.409 30.037 218.405 32.2751 221.936C34.0821 224.787 36.857 227.228 40.0332 228.424C43.8247 229.853 47.8817 230.777 51.8658 231.684C52.6256 231.857 53.3828 232.029 54.135 232.204L78.9188 238.426L81.8322 243.628C82.0157 243.665 82.2549 243.693 82.5112 243.723C83.0622 243.788 83.6926 243.863 84.0204 244.053L83.9169 247.973L0.150243 248.008L0 254.257L223.397 254.22L223.413 248.029L175.74 247.658C178.418 244.957 178.894 240.808 178.418 236.89L183.67 225.875L188.026 215.356C188.235 214.823 188.447 214.288 188.66 213.752C190.329 209.549 192.037 205.246 192.15 200.686C192.23 197.45 191.338 194.264 190.466 191.144C190.307 190.575 190.148 190.009 189.996 189.444L187.913 181.624L182.901 163.525L173.618 130.681C173.169 129.104 172.728 127.52 172.286 125.933C170.54 119.664 168.784 113.36 166.479 107.298L166.477 107.293C165.965 105.946 165.375 104.395 164.248 103.43C162.945 102.315 161.252 101.536 159.614 100.783C158.969 100.486 158.333 100.194 157.733 99.8861L131.992 92.0596L143.544 110.193L138.542 115.125L138.542 115.125C137.785 115.815 137.086 116.489 136.452 117.295L147.292 123.406L147.273 123.603L147.25 123.845C147.138 125.04 147.013 126.378 146.676 127.49L146.676 127.491L143.507 146.168C143.252 147.914 142.862 149.614 142.469 151.329L142.469 151.329L142.469 151.329C142.387 151.689 142.304 152.05 142.223 152.412L142.193 152.546C141.39 156.108 140.589 159.665 139.51 163.156C139.443 163.373 139.378 163.596 139.313 163.821L139.313 163.822L139.313 163.823C139.055 164.714 138.787 165.643 138.305 166.404C138.442 164.822 138.868 163.204 139.285 161.623L139.285 161.623C139.438 161.04 139.591 160.461 139.727 159.892L141.378 152.404L146.052 127.029C146.08 126.981 146.108 126.931 146.136 126.881C146.238 126.699 146.341 126.513 146.495 126.375L146.495 126.374C146.341 126.513 146.238 126.699 146.136 126.881L146.135 126.881C146.108 126.931 146.08 126.981 146.051 127.029L146.366 123.751C146.279 123.567 142.681 121.508 140.242 120.113L140.242 120.113L140.239 120.111C139.222 119.53 138.407 119.064 138.134 118.897L135.696 117.275L138.166 114.824L138.166 114.824C138.554 114.415 138.966 114.005 139.384 113.588C140.533 112.442 141.725 111.254 142.566 109.955C140.502 107.027 138.68 103.957 136.856 100.886C135.772 99.0605 134.688 97.2343 133.552 95.4369C133.292 95.0254 133.043 94.5999 132.793 94.1731C132.322 93.3687 131.848 92.5596 131.293 91.8302C129.53 89.5126 127.55 87.2922 124.944 85.9445C124.982 87.0289 125.168 87.9896 125.361 88.9898C125.433 89.3613 125.506 89.7383 125.572 90.1291L126.479 96.4659L127.883 110.634C128.051 112.143 128.281 113.648 128.512 115.153C128.818 117.157 129.125 119.161 129.285 121.175C129.527 124.213 129.461 127.247 129.36 130.291C129.1 138.177 127.946 146.1 125.278 153.551L122.531 160.25C122.503 160.311 122.474 160.372 122.446 160.433C121.873 161.661 121.273 162.949 120.422 164.004C116.921 160.292 114.338 155.607 111.885 151.158L111.809 151.021C105.759 140.048 100.886 128.712 96.6817 116.915L91.6253 101.862L108.084 119.788L108.565 118.832C108.38 118.646 108.238 118.468 108.082 118.258C107.829 118.088 107.581 117.758 107.353 117.456C107.251 117.321 107.153 117.191 107.061 117.083L104.357 114.003C103.006 112.504 101.607 111.036 100.207 109.566C97.2389 106.452 94.2635 103.33 91.7166 99.8861C91.0561 98.9934 90.6974 98.1875 90.3616 97.1356C89.2687 93.7163 88.0249 89.4233 88.4677 85.8312C88.6131 84.6519 89.2281 83.2022 89.7851 82.1518L89.8959 81.9453L87.7911 83.3023C87.2217 83.7231 86.73 84.2733 86.2509 84.8094C86.1321 84.9424 86.014 85.0745 85.8958 85.2035L82.6376 88.7297ZM79.6332 91.776L79.046 92.1485V93.1248C79.0483 94.211 78.965 95.3119 78.8817 96.4122L78.8816 96.4124C78.8201 97.225 78.7587 98.0373 78.7317 98.8431L78.5447 112.735C78.5459 113.195 78.527 113.691 78.5076 114.201L78.5076 114.201C78.4593 115.467 78.4078 116.82 78.6507 117.926L84.7751 120.352L87.8009 121.381C87.9548 121.428 88.1079 121.466 88.259 121.504C88.6776 121.609 89.0808 121.71 89.4437 121.984L83.6329 126.028C83.3112 126.256 82.9758 126.482 82.637 126.71L82.6369 126.71L82.6364 126.71L82.636 126.71L82.6359 126.71C81.7084 127.334 80.755 127.975 79.9866 128.732L79.99 128.979L80.6104 129.577L81.013 129.419L81.013 129.419L80.6103 129.577L80.6069 129.594L83.5439 133.84C86.6547 138.517 113.602 178.787 114.937 179.431C114.279 178.522 113.671 177.532 113.066 176.549L113.066 176.548L113.066 176.548L113.066 176.548L113.066 176.548L113.066 176.548L113.065 176.548L113.065 176.548C112.697 175.948 112.329 175.35 111.952 174.773L105.501 165.042L88.4759 139.874L83.9032 133.079L81.9204 130.211C81.8717 130.14 81.819 130.068 81.765 129.993L81.7648 129.993C81.5261 129.663 81.2621 129.299 81.2044 128.915L81.1839 128.704L81.184 128.704L90.1907 121.876L89.8442 121.646L89.844 121.646C88.8547 121.14 87.7597 120.76 86.6765 120.385C86.1398 120.199 85.6061 120.015 85.0894 119.816C84.4517 119.57 83.8146 119.305 83.1759 119.039L83.1759 119.039C81.9228 118.517 80.664 117.993 79.3833 117.611L79.6332 91.776ZM68.9623 171.842L68.9624 171.842L68.1365 177.068C68.0802 177.388 68.0225 177.705 67.965 178.02C67.6498 179.751 67.3423 181.44 67.3204 183.226L67.3205 183.227C67.7851 186.054 66.7775 190.627 65.827 194.941C65.1317 198.096 64.467 201.113 64.4313 203.207C64.1849 204.685 65.3711 204.864 66.9193 205.098C67.7672 205.227 68.7236 205.371 69.6127 205.755C69.1285 206.024 68.7117 206.108 68.1752 205.967L63.5576 204.671C64.1214 202.487 64.4258 200.263 64.7308 198.034L64.7309 198.033C64.7858 197.632 64.8406 197.231 64.897 196.83L66.9452 180.977L66.945 180.977C66.8355 180.46 67.0103 179.626 67.164 178.893C67.2351 178.554 67.3016 178.237 67.3336 177.982L68.3604 170.242L68.3604 170.242L69.2756 160.552C69.7374 152.802 69.2346 144.889 67.4559 137.322C67.0722 135.689 66.5775 134.083 66.0831 132.478C65.8171 131.614 65.5513 130.751 65.3028 129.884C67.0571 133.092 68.1002 136.664 68.9017 140.217C69.6398 143.491 70.2021 146.72 70.4247 150.07C70.9118 157.417 70.0571 164.59 68.9623 171.842ZM134.819 178.093L134.903 178.091C135.781 178.065 136.611 178.042 137.48 178.219C137.778 178.467 137.939 178.908 138.083 179.302C138.116 179.395 138.149 179.485 138.183 179.57L135.944 179.681L132.584 179.75C132.82 179.573 133.048 179.38 133.277 179.187L133.277 179.187L133.277 179.187C133.764 178.777 134.253 178.364 134.819 178.093ZM160.492 218.525C160.533 218.539 160.554 218.547 160.568 218.56C160.577 218.569 160.584 218.579 160.591 218.595C160.596 218.606 160.602 218.62 160.609 218.636L160.609 218.637C160.614 218.648 160.619 218.661 160.625 218.675C160.635 218.698 160.647 218.725 160.662 218.758L160.305 218.947C158.289 218.821 156.262 218.893 154.239 218.964H154.239L154.238 218.964L154.238 218.964C153.636 218.985 153.035 219.007 152.434 219.023C152.24 219.028 151.988 219.046 151.706 219.066C150.799 219.132 149.587 219.219 149.034 218.965C148.951 218.926 148.889 218.857 148.827 218.787L148.827 218.787C148.796 218.752 148.766 218.718 148.732 218.687L148.858 218.417L149.836 218.195L151.826 204.778L156.838 204.784L158.208 213.811C158.239 213.969 158.269 214.129 158.3 214.29L158.319 214.392L158.319 214.393C158.558 215.667 158.81 217.008 159.316 218.174C159.635 218.358 159.938 218.407 160.288 218.463L160.353 218.474L160.353 218.474C160.396 218.491 160.43 218.503 160.457 218.513C160.47 218.518 160.481 218.522 160.492 218.525ZM153.381 198.836C153.088 198.856 152.838 198.874 152.656 198.882C151.689 198.972 151.273 199.041 150.59 199.748L150.695 199.945L155.879 199.916C156.006 199.91 156.135 199.911 156.264 199.912C156.73 199.915 157.194 199.918 157.541 199.607L157.497 199.015C156.875 198.588 154.7 198.742 153.382 198.836L153.381 198.836ZM132.49 191.687L139.388 191.641C139.897 191.667 140.197 191.748 140.551 192.116L140.377 192.35L139.363 192.426L133.734 192.516C133.544 192.516 133.341 192.522 133.133 192.528C132.474 192.547 131.758 192.568 131.18 192.409L131.058 192.116C131.42 191.772 131.812 191.741 132.268 191.705C132.341 191.7 132.414 191.694 132.49 191.687ZM130.762 192.964C131.74 192.907 132.701 192.932 133.666 192.958C134.251 192.973 134.838 192.988 135.431 192.986L138.895 192.884C138.942 192.883 138.989 192.881 139.037 192.879L139.162 192.874L139.162 192.874H139.162H139.162C139.822 192.846 140.531 192.816 141.084 193.166V193.621C140.902 193.696 140.778 193.714 140.579 193.718L133.299 193.755C133.181 193.755 133.025 193.76 132.848 193.766H132.848C132.174 193.788 131.197 193.821 130.837 193.591C130.763 193.543 130.702 193.479 130.641 193.415L130.641 193.415C130.61 193.382 130.579 193.35 130.546 193.319L130.762 192.964ZM150.859 200.405L155.866 200.409C155.938 200.409 156.013 200.409 156.091 200.409C156.15 200.408 156.21 200.407 156.272 200.407L156.278 200.407H156.279H156.279H156.279H156.28H156.28C157.053 200.398 158.016 200.387 158.609 200.739C158.612 200.774 158.616 200.807 158.619 200.837L158.625 200.89L158.625 200.89C158.657 201.167 158.671 201.291 158.518 201.585L158.009 201.655L152.391 201.602C152.333 201.601 152.27 201.6 152.205 201.6C152.144 201.599 152.081 201.599 152.016 201.599C151.411 201.597 150.626 201.596 150.202 201.349C150.179 201.336 150.16 201.325 150.143 201.316L150.142 201.315C150.076 201.278 150.048 201.261 150.032 201.237C150.02 201.217 150.016 201.193 150.009 201.149C150.003 201.111 149.995 201.059 149.977 200.982C150.273 200.617 150.386 200.576 150.77 200.437L150.859 200.405ZM113.106 203.656L113.04 204.055C113.756 204.558 114.556 204.541 115.393 204.523C115.578 204.519 115.766 204.515 115.954 204.517L120.34 204.544C120.471 204.541 120.643 204.545 120.839 204.549H120.839H120.84H120.84H120.841H120.841H120.841H120.842H120.842H120.843H120.843H120.843H120.844H120.844H120.844H120.845H120.845H120.846H120.846C121.58 204.564 122.633 204.586 122.993 204.312C123.001 204.25 123.009 204.196 123.017 204.147L123.017 204.147C123.055 203.895 123.071 203.792 122.908 203.517C121.849 203.24 120.558 203.283 119.36 203.322C118.962 203.336 118.575 203.349 118.21 203.349C117.871 203.35 117.485 203.335 117.075 203.32C115.722 203.269 114.113 203.208 113.106 203.656ZM69.2287 206.524L69.2586 206.513C69.3643 206.475 69.4251 206.453 69.5719 206.456C70.0517 206.465 70.6288 206.622 71.174 206.77C71.4469 206.844 71.7118 206.916 71.9525 206.966L84.4913 209.97C84.6649 210.02 84.8774 210.072 85.1087 210.128L85.1104 210.129L85.1111 210.129L85.1116 210.129C85.9418 210.331 87.0143 210.591 87.4151 211.055C86.1357 211.555 71.3335 207.347 69.2048 206.532L69.2287 206.524ZM117.463 205.052H117.462H117.462H117.461H117.461H117.46H117.46H117.459H117.459H117.458H117.458H117.457H117.457H117.456H117.456H117.455H117.455H117.454H117.454H117.453H117.453H117.452H117.452C116.796 205.063 116.156 205.074 115.552 205.065C115.389 205.069 115.22 205.069 115.05 205.069H115.049H115.049H115.049H115.049H115.048H115.048H115.048H115.048C114.426 205.069 113.773 205.068 113.206 205.26C113.02 205.559 113.021 205.732 113.023 206.027C113.024 206.063 113.024 206.101 113.024 206.141C113.024 206.16 113.024 206.18 113.023 206.2C113.061 206.22 113.091 206.238 113.116 206.253C113.129 206.261 113.141 206.268 113.152 206.275L113.152 206.275C113.236 206.326 113.256 206.338 113.396 206.352C114.349 206.445 115.344 206.408 116.333 206.372C116.958 206.349 117.58 206.326 118.188 206.336L121.623 206.491C121.697 206.49 121.792 206.494 121.895 206.498L121.895 206.498H121.896C122.177 206.509 122.526 206.523 122.711 206.466C122.782 206.444 122.834 206.387 122.886 206.33C122.912 206.302 122.938 206.274 122.966 206.25C122.978 206.172 122.991 206.104 123.003 206.042C123.054 205.789 123.083 205.642 122.894 205.37C121.251 204.987 119.295 205.021 117.463 205.052ZM120.054 208.335C119.811 208.332 119.373 208.333 118.82 208.334C116.488 208.341 112.108 208.353 111.626 208.016C111.614 207.936 111.601 207.882 111.592 207.842C111.581 207.793 111.575 207.767 111.58 207.742C111.586 207.712 111.607 207.685 111.655 207.626L111.656 207.626L111.685 207.589L111.714 207.552C112.096 207.066 112.814 207.029 113.419 206.997H113.419L113.419 206.997L113.42 206.997C113.5 206.993 113.579 206.989 113.654 206.984C115.784 206.84 117.927 206.892 120.06 206.944L120.303 206.95C120.544 206.955 120.802 206.952 121.065 206.948H121.065C121.671 206.939 122.309 206.93 122.852 207.035C123.2 207.102 123.582 207.289 123.834 207.541L123.929 207.663L123.809 207.945C123.266 208.112 122.759 208.224 122.195 208.289C121.811 208.207 121.207 208.254 120.678 208.296L120.677 208.296C120.447 208.314 120.232 208.331 120.054 208.335ZM132.542 195.528C133.152 195.522 133.696 195.517 133.996 195.557L137.82 195.495C138.155 195.496 138.541 195.515 138.949 195.535L138.95 195.535C140.055 195.589 141.32 195.651 142.159 195.367L142.181 195.14C142.075 195.066 141.974 195.008 141.866 194.948L141.866 194.948L141.865 194.947C141.841 194.933 141.815 194.919 141.79 194.904C141.598 194.795 141.482 194.624 141.362 194.448L141.362 194.447L141.359 194.443C141.336 194.41 141.313 194.376 141.289 194.342C140.308 194.106 139.21 194.136 138.161 194.164H138.161H138.16H138.16H138.16H138.159H138.159H138.159H138.159H138.158H138.158H138.158H138.158C137.855 194.172 137.557 194.18 137.267 194.182L129.989 194.311C129.675 194.55 129.611 194.791 129.52 195.135L129.52 195.136C129.512 195.165 129.504 195.195 129.496 195.225C129.855 195.551 131.33 195.538 132.542 195.528ZM153.706 202.084H153.707C154.205 202.092 154.702 202.1 155.194 202.101C155.529 202.102 155.878 202.093 156.236 202.085C157.396 202.057 158.635 202.028 159.687 202.304C160.369 202.483 160.617 202.914 160.917 203.437L160.917 203.437L160.917 203.437C160.982 203.55 161.05 203.668 161.125 203.788L158.95 203.935L150.726 203.917C150.527 203.916 150.283 203.927 150.021 203.938L150.019 203.938L150.018 203.938H150.018H150.018H150.018H150.018H150.017H150.017C149.32 203.968 148.49 204.004 148.009 203.851C147.942 203.829 147.895 203.773 147.847 203.716L147.847 203.715C147.824 203.687 147.8 203.659 147.774 203.635C147.807 203.336 147.838 203.156 148.015 202.902C148.432 202.3 149.294 202.206 149.962 202.133L149.997 202.129C151.217 202.043 152.467 202.063 153.706 202.084ZM132.575 181.798L139.073 181.781C139.299 181.964 139.567 181.956 139.847 181.948L139.848 181.948C139.926 181.946 140.006 181.943 140.086 181.945C140.086 181.974 140.084 182.005 140.082 182.036V182.037C140.075 182.134 140.068 182.239 140.112 182.318L143.405 182.462C143.572 182.364 143.617 182.207 143.666 182.035C143.681 181.982 143.697 181.927 143.717 181.872L143.957 181.587L143.84 181.3C143.205 181.048 142.561 180.966 141.912 180.883C141.519 180.833 141.125 180.783 140.731 180.695C140.415 180.624 140.112 180.521 139.809 180.418C139.325 180.253 138.843 180.089 138.312 180.06C135.567 179.91 132.63 180.146 129.934 180.629C129.749 180.662 129.57 180.688 129.397 180.714C128.657 180.823 128.015 180.917 127.375 181.471L127.473 181.686C128.808 181.906 130.194 181.865 131.558 181.824C131.899 181.814 132.238 181.804 132.575 181.798ZM118.508 185.615L118.571 185.589C118.986 185.524 119.27 185.523 119.639 185.709C119.744 186.218 119.559 186.776 119.388 187.29L119.388 187.29C119.347 187.414 119.307 187.535 119.271 187.653L121.126 187.909C121.256 188.508 121.253 189.416 120.944 189.928C120.542 190.044 120.147 190.002 119.741 189.959L119.669 189.951C119.638 189.948 119.606 189.944 119.574 189.941C119.559 189.94 119.545 189.938 119.531 189.937C119.204 190.095 119.254 190.549 119.307 191.03C119.355 191.468 119.406 191.928 119.177 192.21L117.799 192.231L116.987 192.204C116.757 191.861 116.825 190.996 116.875 190.364C116.888 190.19 116.901 190.033 116.905 189.91L114.696 189.819C114.693 189.764 114.69 189.707 114.687 189.648C114.654 189.052 114.609 188.23 114.937 187.812L116.408 187.954L116.404 185.65L118.508 185.615ZM123.159 208.858L123.679 208.893C124.388 208.992 125.226 209.684 125.637 210.237L125.638 210.238C125.857 210.532 125.895 210.583 125.834 210.927C125.304 211.144 124.741 211.144 124.176 211.144C124.064 211.144 123.952 211.144 123.84 211.146L120.637 211.167C119.708 211.169 118.76 211.187 117.804 211.206H117.804C115.022 211.262 112.169 211.318 109.498 210.954L110.356 209.864C110.593 209.607 111.064 209.136 111.385 209.011C111.97 208.784 112.988 208.815 113.814 208.84C114.083 208.848 114.331 208.856 114.537 208.854L123.159 208.858ZM138.081 196.039L131.922 195.981C131.72 195.983 131.454 195.969 131.165 195.953C130.504 195.918 129.725 195.877 129.32 196.01C129.117 196.077 128.615 196.624 128.297 196.97C128.208 197.068 128.133 197.149 128.083 197.2C127.908 197.379 127.825 197.534 127.747 197.77L127.857 198.052C128.607 198.328 129.515 198.341 130.363 198.353C130.604 198.356 130.841 198.359 131.067 198.369L139.406 198.455C139.737 198.451 140.108 198.462 140.499 198.474L140.501 198.474L140.502 198.474C141.685 198.51 143.041 198.551 143.954 198.193L144.116 197.911C143.762 197.229 143.155 196.562 142.509 196.144L140.727 196.024C140.158 196.123 139.483 196.093 138.845 196.064C138.58 196.052 138.322 196.041 138.081 196.039ZM135.143 168.463C135.153 168.461 135.162 168.46 135.171 168.459C135.194 168.458 135.217 168.463 135.266 168.472L135.266 168.472C135.295 168.477 135.333 168.484 135.386 168.493C135.489 168.51 135.546 168.521 135.584 168.528L135.6 168.531L135.621 168.535C135.629 168.536 135.636 168.538 135.644 168.539L135.65 168.54L135.663 168.541C135.674 168.542 135.687 168.543 135.702 168.544L135.75 168.548L135.78 168.549L135.781 168.549L135.838 168.553C136.552 168.598 136.976 168.952 137.471 169.367C137.575 169.453 137.681 169.542 137.794 169.631C137.467 170.384 137.244 170.918 137.315 171.763C137.646 172.054 138.499 172.007 139.134 171.972C139.302 171.962 139.455 171.954 139.579 171.953L139.568 174.478L137.218 174.394C137.215 174.635 137.218 174.882 137.22 175.132V175.132V175.132V175.132C137.227 175.839 137.234 176.565 137.127 177.237L136.703 177.342L134.324 177.21L134.533 174.534L132.115 174.505L132.047 171.804L134.567 172.002L134.51 171.41C134.464 170.776 134.43 170.352 134.123 169.779L134.048 169.644L134.13 169.361C134.394 169.305 134.618 169.235 134.865 169.127L134.957 168.513C135.016 168.498 135.056 168.487 135.086 168.478L135.086 168.478C135.111 168.471 135.128 168.467 135.143 168.463ZM153.625 186.886L154.37 186.82C154.823 186.837 155.298 187.163 155.558 187.522C155.738 187.772 155.798 188.06 155.749 188.361C155.669 188.849 155.339 189.219 154.956 189.501L154.856 189.572C155.212 189.843 155.646 190.008 156.091 190.178C156.587 190.367 157.096 190.561 157.525 190.911C158.529 191.732 158.982 193.137 159.047 194.396C159.101 195.458 158.493 196.934 157.742 197.709C157.232 198.236 156.436 198.269 155.731 198.299L155.73 198.299L155.647 198.303C155.586 198.305 155.525 198.308 155.465 198.311L151.37 198.327L151.339 198.3C151.021 198.012 150.694 197.717 150.435 197.372C149.502 196.127 149.196 194.63 149.49 193.105C149.709 191.966 151.089 190.473 152.108 189.916C152.259 189.833 152.411 189.774 152.563 189.715C152.763 189.637 152.961 189.559 153.153 189.431C152.812 188.759 152.72 188.488 152.779 187.734C153.028 187.276 153.171 187.144 153.625 186.886ZM140.112 182.319L143.405 182.462C141.697 185.062 140.481 188.301 139.763 191.307L134.26 191.304C134.055 191.298 133.842 191.298 133.626 191.297H133.625C133.005 191.294 132.36 191.292 131.781 191.168C130.936 188.024 129.503 185.116 127.834 182.337L140.112 182.319ZM118.085 192.781L117.628 192.799C117.512 192.813 117.373 192.822 117.225 192.832C116.814 192.86 116.33 192.894 116.045 193.03C115.765 193.164 115.391 193.655 115.097 194.039C114.995 194.174 114.902 194.296 114.827 194.384C114.823 194.388 114.819 194.394 114.813 194.4L114.792 194.428L114.755 194.475L114.755 194.475L114.755 194.475L114.755 194.476L114.754 194.476L114.754 194.476C114.653 194.607 114.487 194.822 114.438 194.842C114.243 194.925 113.905 194.953 113.606 194.979C113.465 194.991 113.332 195.002 113.228 195.018L110.169 195.451L113.914 202.905L118.647 202.856L122.638 202.824C122.906 201.905 123.32 201.082 123.743 200.245L123.743 200.244L123.743 200.244L123.743 200.244L123.743 200.244C123.872 199.987 124.002 199.73 124.129 199.467L125.86 195.457L120.899 194.801C120.954 194.296 120.931 194.12 120.59 193.726C119.858 192.876 119.16 192.785 118.085 192.781ZM145.832 226.647L145.832 226.647L145.83 226.645L145.825 226.639L145.722 226.532C145.684 226.491 145.645 226.451 145.607 226.411C145.238 226.029 145.152 225.94 145.1 225.401C145.428 224.487 146.202 223.862 146.975 223.238C147.67 222.676 148.364 222.115 148.732 221.346C148.968 220.853 149.018 220.262 149.065 219.71C149.069 219.669 149.072 219.629 149.076 219.589C149.08 219.541 149.084 219.493 149.089 219.446L160.115 219.447C160.186 220.583 160.265 221.56 161.149 222.367C161.491 222.679 161.935 222.972 162.396 223.275L162.396 223.275C163.544 224.031 164.797 224.856 164.84 226.226C164.858 226.797 164.49 227.466 164.16 227.909C163.521 228.205 162.811 228.23 162.103 228.256C161.696 228.27 161.29 228.285 160.898 228.351C160.124 228.189 159.108 228.244 158.168 228.295C157.744 228.318 157.336 228.34 156.973 228.341L147.649 228.213C146.971 227.844 146.378 227.221 145.832 226.647L145.832 226.647ZM129.748 219.466C129.758 219.504 129.77 219.549 129.782 219.605L133.978 219.619C134.18 219.62 134.396 219.612 134.616 219.604H134.616H134.617H134.617H134.617C135.096 219.587 135.595 219.57 136.027 219.636C136.756 219.618 137.506 219.639 138.261 219.659H138.262C139.569 219.694 140.89 219.729 142.131 219.571L142.161 219.394L141.611 219.14C140.216 217.541 138.974 202.295 138.829 199.312L132.694 199.416C132.35 204.154 131.971 208.819 131.221 213.513C131.181 213.765 131.142 214.027 131.102 214.296C130.862 215.907 130.584 217.766 129.804 219.091C129.696 219.275 129.71 219.329 129.748 219.466ZM110.849 229.844C110.835 229.806 110.827 229.788 110.828 229.77C110.828 229.752 110.835 229.735 110.849 229.701C110.861 229.673 110.878 229.632 110.9 229.57L112.24 229.054C112.647 228.16 112.889 227.089 113.114 226.09L113.114 226.089C113.16 225.886 113.205 225.685 113.251 225.49C114.289 221.068 114.701 216.524 114.981 211.999L121.341 211.963C121.349 215.642 121.957 219.332 122.629 222.941C122.681 223.218 122.731 223.5 122.782 223.787C123.137 225.795 123.529 228.007 124.715 229.611L124.812 229.503C124.999 227.895 126.042 226.681 127.079 225.474L127.079 225.474L127.079 225.474C127.596 224.873 128.11 224.274 128.517 223.629C129.173 222.586 129.458 221.617 129.686 220.415L137.035 220.442C137.372 220.441 137.715 220.446 138.062 220.451C139.092 220.466 140.148 220.482 141.138 220.329L141.717 220.383C141.875 220.649 141.906 220.974 141.937 221.295C141.953 221.466 141.97 221.636 142.005 221.796C142.12 222.321 142.356 222.874 142.597 223.353C143.032 224.216 143.925 225.349 144.596 226.057C144.822 226.295 145.054 226.507 145.284 226.718L145.285 226.718C145.651 227.053 146.013 227.384 146.336 227.808C148.751 231.911 146.067 231.911 144.358 231.911H137.499C136.565 231.91 135.585 231.949 134.587 231.988C132.016 232.088 129.328 232.193 127.021 231.648C126.66 231.41 126.565 231.152 126.428 230.783L126.396 230.699L126.207 230.193L126.14 230.004C125.424 229.903 124.584 229.948 123.776 229.991H123.776H123.775H123.775C123.361 230.013 122.955 230.035 122.578 230.036L113.15 229.995L110.886 229.942C110.871 229.899 110.859 229.868 110.85 229.845L110.849 229.844ZM94.4294 212.221C93.3797 211.99 91.9684 211.679 91.2894 211.903C87.1682 214.547 84.7164 220.42 83.705 225.027C82.6297 229.928 82.4847 235.785 84.7755 240.372L96.5635 241.895L96.7451 241.583L96.736 241.549C96.2983 239.897 95.8676 238.272 95.681 236.567C95.0835 231.116 96.1696 224.675 98.9119 219.88C100.293 217.464 101.863 215.38 104.369 214.047C102.23 213.541 100.044 213.184 97.8635 212.828L97.8625 212.828C96.9876 212.685 96.1138 212.542 95.2446 212.39C95.0247 212.352 94.7432 212.29 94.4294 212.221Z" fill="#0C0C0C"/>
<path d="M91.2288 236.071C91.3972 236.011 91.4182 235.993 91.6188 235.976C92.0459 235.939 92.5833 236.191 92.8723 236.495C93.1984 236.838 93.2872 237.234 93.2413 237.697C93.1935 238.186 92.8938 238.459 92.5394 238.757L92.3681 238.807C91.9229 238.893 91.5456 238.822 91.1927 238.525C90.7953 238.189 90.6753 237.689 90.5889 237.202C90.6948 236.658 90.8363 236.456 91.2288 236.071Z" fill="#010000"/>
<path d="M86.8963 235.788C87.0462 235.716 87.0545 235.703 87.2404 235.666C87.6539 235.587 88.2401 235.789 88.5418 236.071C88.8815 236.388 89.0289 236.813 88.9869 237.272C88.941 237.767 88.7141 238.091 88.366 238.42L88.1615 238.498C87.7886 238.627 87.2736 238.591 86.9422 238.368C86.6342 238.162 86.3652 237.775 86.3067 237.418C86.2037 236.793 86.5346 236.265 86.8963 235.788Z" fill="#010000"/>
</svg>
